<svg width="28" height="28" viewBox="0 0 28 28" fill="none" xmlns="http://www.w3.org/2000/svg">
<path d="M9 10C9 10.5523 8.55228 11 8 11C7.44772 11 7 10.5523 7 10C7 9.44772 7.44772 9 8 9C8.55228 9 9 9.44772 9 10Z" fill="#98979C"/>
<path d="M12 10C12 10.5523 11.5523 11 11 11C10.4477 11 10 10.5523 10 10C10 9.44772 10.4477 9 11 9C11.5523 9 12 9.44772 12 10Z" fill="#98979C"/>
<path d="M14 11C14.5523 11 15 10.5523 15 10C15 9.44772 14.5523 9 14 9C13.4477 9 13 9.44772 13 10C13 10.5523 13.4477 11 14 11Z" fill="#98979C"/>
<path d="M4 9C4 7.34315 5.34315 6 7 6H21C22.6569 6 24 7.34315 24 9V10C24 10.5523 23.5523 11 23 11C22.4477 11 22 10.5523 22 10V9C22 8.44772 21.5523 8 21 8H7C6.44772 8 6 8.44772 6 9V19C6 19.5523 6.44772 20 7 20H12C12.5523 20 13 20.4477 13 21C13 21.5523 12.5523 22 12 22H7C5.34315 22 4 20.6569 4 19V9Z" fill="#98979C"/>
<path d="M20 13C20.5523 13 21 13.4477 21 14C21 15.2668 21.2816 15.9508 21.6654 16.3346C22.0492 16.7184 22.7332 17 24 17C24.5523 17 25 17.4477 25 18C25 18.5523 24.5523 19 24 19C22.7332 19 22.0492 19.2816 21.6654 19.6654C21.2816 20.0492 21 20.7332 21 22C21 22.5523 20.5523 23 20 23C19.4477 23 19 22.5523 19 22C19 20.7332 18.7184 20.0492 18.3346 19.6654C17.9508 19.2816 17.2668 19 16 19C15.4477 19 15 18.5523 15 18C15 17.4477 15.4477 17 16 17C17.2668 17 17.9508 16.7184 18.3346 16.3346C18.7184 15.9508 19 15.2668 19 14C19 13.4477 19.4477 13 20 13Z" fill="#98979C"/>
</svg>
