<svg width="28" height="28" viewBox="0 0 28 28" fill="none" xmlns="http://www.w3.org/2000/svg">
<g id="Icon/Metamask">
<g id="Group 164">
<path id="Vector" d="M23.4692 3.82959L15.0898 10.0297L16.6481 6.37579L23.4692 3.82959Z" fill="#E17726" style="fill:#E17726;fill:color(display-p3 0.8824 0.4667 0.1490);fill-opacity:1;"/>
<path id="Vector (Stroke)" fill-rule="evenodd" clip-rule="evenodd" d="M23.539 3.79173C23.5579 3.82666 23.5483 3.87023 23.5163 3.89387L15.137 10.094C15.108 10.1154 15.0683 10.1148 15.0401 10.0925C15.0119 10.0702 15.002 10.0317 15.0162 9.99862L16.5744 6.34467C16.5829 6.32458 16.5994 6.30888 16.6198 6.30124L23.441 3.75505C23.4782 3.74115 23.52 3.75679 23.539 3.79173ZM16.7077 6.43871L15.278 9.79124L22.9662 4.10254L16.7077 6.43871Z" fill="#E17726" style="fill:#E17726;fill:color(display-p3 0.8824 0.4667 0.1490);fill-opacity:1;"/>
<path id="Vector_2" d="M4.14062 3.82959L12.4454 10.0876L10.9618 6.37578L4.14062 3.82959Z" fill="#E27625" style="fill:#E27625;fill:color(display-p3 0.8863 0.4627 0.1451);fill-opacity:1;"/>
<path id="Vector (Stroke)_2" fill-rule="evenodd" clip-rule="evenodd" d="M4.07037 3.79142C4.08942 3.75668 4.13108 3.74119 4.16819 3.75505L10.9894 6.30124C11.0104 6.3091 11.0272 6.32548 11.0355 6.34635L12.5191 10.0582C12.5324 10.0914 12.5219 10.1294 12.4935 10.1511C12.4651 10.1729 12.4257 10.173 12.3971 10.1515L4.09231 3.89345C4.06067 3.86961 4.05133 3.82616 4.07037 3.79142ZM4.62674 4.09646L12.2651 9.85227L10.9005 6.43832L4.62674 4.09646Z" fill="#E27625" style="fill:#E27625;fill:color(display-p3 0.8863 0.4627 0.1451);fill-opacity:1;"/>
<path id="Vector_3" d="M20.4512 18.2056L18.2217 21.6115L22.9957 22.926L24.3633 18.28L20.4512 18.2056Z" fill="#E27625" style="fill:#E27625;fill:color(display-p3 0.8863 0.4627 0.1451);fill-opacity:1;"/>
<path id="Vector (Stroke)_3" fill-rule="evenodd" clip-rule="evenodd" d="M20.3851 18.162C20.4001 18.1391 20.4259 18.1255 20.4534 18.126L24.3654 18.2004C24.3903 18.2009 24.4135 18.213 24.4282 18.233C24.4429 18.2531 24.4474 18.2788 24.4404 18.3027L23.0728 22.9486C23.0605 22.9904 23.0171 23.0146 22.9751 23.003L18.2012 21.6886C18.1766 21.6818 18.1567 21.6637 18.1477 21.6399C18.1387 21.616 18.1416 21.5893 18.1556 21.568L20.3851 18.162ZM20.4944 18.2863L18.349 21.5638L22.9419 22.8284L24.2579 18.3579L20.4944 18.2863Z" fill="#E27625" style="fill:#E27625;fill:color(display-p3 0.8863 0.4627 0.1451);fill-opacity:1;"/>
<path id="Vector_4" d="M3.25391 18.28L4.61316 22.926L9.37889 21.6115L7.15764 18.2056L3.25391 18.28Z" fill="#E27625" style="fill:#E27625;fill:color(display-p3 0.8863 0.4627 0.1451);fill-opacity:1;"/>
<path id="Vector (Stroke)_4" fill-rule="evenodd" clip-rule="evenodd" d="M7.15579 18.126C7.18327 18.1255 7.20909 18.1391 7.22411 18.1622L9.44536 21.5681C9.45926 21.5894 9.46215 21.6161 9.45314 21.6399C9.44413 21.6637 9.4243 21.6818 9.39976 21.6886L4.63404 23.003C4.59204 23.0146 4.54852 22.9903 4.53629 22.9485L3.17704 18.3026C3.17006 18.2787 3.1746 18.253 3.18931 18.233C3.20401 18.2129 3.22722 18.2009 3.25206 18.2004L7.15579 18.126ZM3.35941 18.3579L4.66732 22.8284L9.25214 21.5638L7.11465 18.2863L3.35941 18.3579Z" fill="#E27625" style="fill:#E27625;fill:color(display-p3 0.8863 0.4627 0.1451);fill-opacity:1;"/>
<path id="Vector_5" d="M9.12198 12.4521L7.7959 14.4527L12.5202 14.6676L12.3627 9.5835L9.12198 12.4521Z" fill="#E27625" style="fill:#E27625;fill:color(display-p3 0.8863 0.4627 0.1451);fill-opacity:1;"/>
<path id="Vector (Stroke)_5" fill-rule="evenodd" clip-rule="evenodd" d="M12.394 9.51044C12.4224 9.5227 12.4411 9.55027 12.4421 9.58119L12.5995 14.6653C12.6002 14.6875 12.5916 14.709 12.5758 14.7246C12.56 14.7402 12.5384 14.7484 12.5162 14.7474L7.79194 14.5325C7.76325 14.5312 7.73748 14.5146 7.72447 14.4889C7.71146 14.4633 7.71323 14.4327 7.7291 14.4088L9.05518 12.4082C9.05902 12.4024 9.0636 12.3971 9.0688 12.3925L12.3095 9.52394C12.3327 9.50344 12.3656 9.49818 12.394 9.51044ZM9.18235 12.505L7.93981 14.3796L12.4375 14.5842L12.2879 9.75606L9.18235 12.505Z" fill="#E27625" style="fill:#E27625;fill:color(display-p3 0.8863 0.4627 0.1451);fill-opacity:1;"/>
<path id="Vector_6" d="M18.487 12.4523L15.1966 9.52588L15.0889 14.6679L19.8131 14.4529L18.487 12.4523Z" fill="#E27625" style="fill:#E27625;fill:color(display-p3 0.8863 0.4627 0.1451);fill-opacity:1;"/>
<path id="Vector (Stroke)_6" fill-rule="evenodd" clip-rule="evenodd" d="M15.1654 9.45246C15.1939 9.44002 15.227 9.44529 15.2503 9.46596L18.5406 12.3924C18.5458 12.397 18.5503 12.4022 18.5541 12.4079L19.8802 14.4085C19.8961 14.4325 19.8978 14.4631 19.8848 14.4887C19.8718 14.5143 19.8461 14.531 19.8174 14.5323L15.0931 14.7472C15.0711 14.7482 15.0496 14.74 15.0338 14.7246C15.018 14.7092 15.0093 14.6879 15.0098 14.6659L15.1175 9.52388C15.1182 9.49278 15.1369 9.4649 15.1654 9.45246ZM15.2734 9.69997L15.171 14.584L19.6695 14.3793L18.4269 12.5047L15.2734 9.69997Z" fill="#E27625" style="fill:#E27625;fill:color(display-p3 0.8863 0.4627 0.1451);fill-opacity:1;"/>
<path id="Vector_7" d="M9.37891 21.6119L12.2383 20.2314L9.77675 18.3135L9.37891 21.6119Z" fill="#E27625" style="fill:#E27625;fill:color(display-p3 0.8863 0.4627 0.1451);fill-opacity:1;"/>
<path id="Vector (Stroke)_7" fill-rule="evenodd" clip-rule="evenodd" d="M9.74578 18.2395C9.77232 18.2285 9.80276 18.2326 9.82544 18.2502L12.287 20.1682C12.3087 20.1851 12.3202 20.2121 12.3173 20.2395C12.3143 20.2669 12.2975 20.2909 12.2726 20.3029L9.41325 21.6834C9.387 21.6961 9.35592 21.6934 9.33221 21.6765C9.30849 21.6595 9.29591 21.631 9.2994 21.602L9.69725 18.3036C9.70069 18.2751 9.71924 18.2506 9.74578 18.2395ZM9.83871 18.4628L9.47521 21.4764L12.0877 20.2151L9.83871 18.4628Z" fill="#E27625" style="fill:#E27625;fill:color(display-p3 0.8863 0.4627 0.1451);fill-opacity:1;"/>
<path id="Vector_8" d="M15.3711 20.2314L18.2222 21.6119L17.8326 18.3135L15.3711 20.2314Z" fill="#E27625" style="fill:#E27625;fill:color(display-p3 0.8863 0.4627 0.1451);fill-opacity:1;"/>
<path id="Vector (Stroke)_8" fill-rule="evenodd" clip-rule="evenodd" d="M17.863 18.2396C17.8896 18.2507 17.9081 18.2752 17.9115 18.3038L18.3011 21.6022C18.3045 21.6312 18.2918 21.6597 18.2681 21.6766C18.2444 21.6935 18.2133 21.6961 18.1871 21.6834L15.336 20.3028C15.3112 20.2908 15.2944 20.2669 15.2915 20.2395C15.2886 20.2121 15.3 20.1851 15.3218 20.1682L17.7833 18.2502C17.806 18.2325 17.8365 18.2285 17.863 18.2396ZM15.5209 20.2152L18.1256 21.4764L17.7697 18.463L15.5209 20.2152Z" fill="#E27625" style="fill:#E27625;fill:color(display-p3 0.8863 0.4627 0.1451);fill-opacity:1;"/>
<path id="Vector_9" d="M18.2222 21.612L15.3711 20.2314L15.6031 22.0832L15.5782 22.8686L18.2222 21.612Z" fill="#D5BFB2" style="fill:#D5BFB2;fill:color(display-p3 0.8353 0.7490 0.6980);fill-opacity:1;"/>
<path id="Vector (Stroke)_9" fill-rule="evenodd" clip-rule="evenodd" d="M15.3243 20.1663C15.348 20.1493 15.3792 20.1466 15.4055 20.1593L18.2566 21.5399C18.2842 21.5532 18.3017 21.5813 18.3016 21.6119C18.3015 21.6426 18.2838 21.6705 18.2561 21.6837L15.6122 22.9403C15.587 22.9522 15.5575 22.9502 15.5343 22.935C15.511 22.9197 15.4973 22.8935 15.4982 22.8657L15.5229 22.0866L15.2916 20.241C15.288 20.212 15.3005 20.1834 15.3243 20.1663ZM15.4681 20.3669L15.6819 22.073C15.6824 22.0771 15.6826 22.0812 15.6825 22.0854L15.6618 22.7401L18.0375 21.611L15.4681 20.3669Z" fill="#D5BFB2" style="fill:#D5BFB2;fill:color(display-p3 0.8353 0.7490 0.6980);fill-opacity:1;"/>
<path id="Vector_10" d="M9.37891 21.612L12.0311 22.8686L12.0146 22.0832L12.2383 20.2314L9.37891 21.612Z" fill="#D5BFB2" style="fill:#D5BFB2;fill:color(display-p3 0.8353 0.7490 0.6980);fill-opacity:1;"/>
<path id="Vector (Stroke)_10" fill-rule="evenodd" clip-rule="evenodd" d="M12.2843 20.1662C12.3081 20.1832 12.3206 20.2117 12.3171 20.2407L12.0941 22.0868L12.1105 22.8665C12.1111 22.8942 12.0974 22.9201 12.0742 22.9352C12.051 22.9502 12.0216 22.9521 11.9967 22.9403L9.34443 21.6837C9.31668 21.6706 9.29894 21.6427 9.29883 21.6119C9.29872 21.5812 9.31625 21.5532 9.3439 21.5398L12.2033 20.1593C12.2295 20.1466 12.2606 20.1493 12.2843 20.1662ZM9.5634 21.611L11.9484 22.7409L11.9345 22.0846C11.9344 22.0808 11.9346 22.077 11.9351 22.0733L12.1413 20.3663L9.5634 21.611Z" fill="#D5BFB2" style="fill:#D5BFB2;fill:color(display-p3 0.8353 0.7490 0.6980);fill-opacity:1;"/>
<path id="Vector_11" d="M12.0804 17.0897L9.70996 16.3953L11.3842 15.6265L12.0804 17.0897Z" fill="#233447" style="fill:#233447;fill:color(display-p3 0.1373 0.2039 0.2784);fill-opacity:1;"/>
<path id="Vector (Stroke)_11" fill-rule="evenodd" clip-rule="evenodd" d="M11.3515 15.5542C11.3912 15.536 11.4381 15.553 11.4568 15.5924L12.1531 17.0556C12.1666 17.084 12.1621 17.1177 12.1417 17.1416C12.1213 17.1655 12.0888 17.1752 12.0586 17.1664L9.68819 16.472C9.65626 16.4627 9.63349 16.4345 9.63107 16.4013C9.62865 16.3681 9.64709 16.3369 9.67733 16.323L11.3515 15.5542ZM9.93776 16.3789L11.9325 16.9632L11.3466 15.7319L9.93776 16.3789Z" fill="#233447" style="fill:#233447;fill:color(display-p3 0.1373 0.2039 0.2784);fill-opacity:1;"/>
<path id="Vector_12" d="M15.5283 17.0897L16.2246 15.6265L17.9071 16.3953L15.5283 17.0897Z" fill="#233447" style="fill:#233447;fill:color(display-p3 0.1373 0.2039 0.2784);fill-opacity:1;"/>
<path id="Vector (Stroke)_12" fill-rule="evenodd" clip-rule="evenodd" d="M16.1532 15.5924C16.1719 15.553 16.2187 15.536 16.2583 15.5541L17.9408 16.3229C17.9711 16.3368 17.9896 16.368 17.9872 16.4012C17.9848 16.4345 17.962 16.4627 17.93 16.472L15.5513 17.1664C15.5211 17.1752 15.4886 17.1655 15.4682 17.1416C15.4479 17.1176 15.4435 17.084 15.457 17.0556L16.1532 15.5924ZM16.2635 15.7318L15.6774 16.9634L17.6797 16.379L16.2635 15.7318Z" fill="#233447" style="fill:#233447;fill:color(display-p3 0.1373 0.2039 0.2784);fill-opacity:1;"/>
<path id="Vector_13" d="M9.37844 21.6115L9.79288 18.2056L7.15723 18.28L9.37844 21.6115Z" fill="#CC6228" style="fill:#CC6228;fill:color(display-p3 0.8000 0.3843 0.1569);fill-opacity:1;"/>
<path id="Vector (Stroke)_13" fill-rule="evenodd" clip-rule="evenodd" d="M9.85247 18.152C9.86811 18.1692 9.87549 18.1923 9.87269 18.2154L9.45825 21.6213C9.45422 21.6544 9.43 21.6815 9.39754 21.6893C9.36508 21.697 9.33124 21.6837 9.31273 21.6559L7.09152 18.3244C7.07543 18.3003 7.07371 18.2693 7.08704 18.2435C7.10036 18.2178 7.12663 18.2013 7.15562 18.2005L9.79127 18.126C9.81448 18.1254 9.83683 18.1348 9.85247 18.152ZM7.30416 18.3558L9.32594 21.3882L9.70317 18.2881L7.30416 18.3558Z" fill="#CC6228" style="fill:#CC6228;fill:color(display-p3 0.8000 0.3843 0.1569);fill-opacity:1;"/>
<path id="Vector_14" d="M17.8164 18.2056L18.2225 21.6115L20.4521 18.28L17.8164 18.2056Z" fill="#CC6228" style="fill:#CC6228;fill:color(display-p3 0.8000 0.3843 0.1569);fill-opacity:1;"/>
<path id="Vector (Stroke)_14" fill-rule="evenodd" clip-rule="evenodd" d="M17.7572 18.1519C17.7728 18.1348 17.7951 18.1254 17.8183 18.126L20.454 18.2005C20.483 18.2013 20.5093 18.2178 20.5226 18.2436C20.5359 18.2694 20.5341 18.3004 20.518 18.3245L18.2885 21.656C18.2699 21.6838 18.2361 21.697 18.2036 21.6892C18.1712 21.6814 18.147 21.6543 18.143 21.6211L17.7369 18.2152C17.7341 18.1921 17.7416 18.1691 17.7572 18.1519ZM17.9062 18.2881L18.2759 21.3881L20.3051 18.3558L17.9062 18.2881Z" fill="#CC6228" style="fill:#CC6228;fill:color(display-p3 0.8000 0.3843 0.1569);fill-opacity:1;"/>
<path id="Vector_15" d="M19.8131 14.4526L15.0889 14.6676L15.5281 17.0898L16.2244 15.6265L17.9069 16.3954L19.8131 14.4526Z" fill="#CC6228" style="fill:#CC6228;fill:color(display-p3 0.8000 0.3843 0.1569);fill-opacity:1;"/>
<path id="Vector (Stroke)_15" fill-rule="evenodd" clip-rule="evenodd" d="M19.8866 14.4203C19.8999 14.4502 19.8936 14.4853 19.8707 14.5086L17.9644 16.4514C17.9409 16.4753 17.9049 16.482 17.8744 16.4681L16.2633 15.7319L15.6008 17.1242C15.5859 17.1555 15.5526 17.1736 15.5182 17.169C15.4839 17.1645 15.4565 17.1383 15.4503 17.1042L15.011 14.682C15.0069 14.6593 15.0128 14.636 15.0272 14.618C15.0415 14.6 15.0629 14.5891 15.0859 14.5881L19.8101 14.3731C19.8429 14.3716 19.8732 14.3903 19.8866 14.4203ZM15.1843 14.7433L15.5631 16.8322L16.153 15.5924C16.1717 15.5531 16.2185 15.5361 16.2581 15.5542L17.8898 16.2997L19.6148 14.5417L15.1843 14.7433Z" fill="#CC6228" style="fill:#CC6228;fill:color(display-p3 0.8000 0.3843 0.1569);fill-opacity:1;"/>
<path id="Vector_16" d="M9.71046 16.3954L11.3847 15.6265L12.0809 17.0898L12.5202 14.6676L7.7959 14.4526L9.71046 16.3954Z" fill="#CC6228" style="fill:#CC6228;fill:color(display-p3 0.8000 0.3843 0.1569);fill-opacity:1;"/>
<path id="Vector (Stroke)_16" fill-rule="evenodd" clip-rule="evenodd" d="M7.72272 14.4203C7.73607 14.3904 7.76642 14.3716 7.7992 14.3731L12.5235 14.5881C12.5464 14.5891 12.5678 14.6 12.5822 14.618C12.5965 14.636 12.6024 14.6593 12.5983 14.682L12.159 17.1042C12.1529 17.1383 12.1254 17.1645 12.0911 17.169C12.0568 17.1736 12.0234 17.1555 12.0086 17.1242L11.3461 15.732L9.74342 16.468C9.71291 16.482 9.6769 16.4754 9.65333 16.4515L7.73877 14.5088C7.71574 14.4854 7.70937 14.4503 7.72272 14.4203ZM7.99516 14.5417L9.72768 16.2997L11.3511 15.5542C11.3907 15.536 11.4376 15.553 11.4564 15.5924L12.0463 16.8322L12.4251 14.7433L7.99516 14.5417Z" fill="#CC6228" style="fill:#CC6228;fill:color(display-p3 0.8000 0.3843 0.1569);fill-opacity:1;"/>
<path id="Vector_17" d="M7.7959 14.4526L9.77679 18.3133L9.71044 16.3954L7.7959 14.4526Z" fill="#E27525" style="fill:#E27525;fill:color(display-p3 0.8863 0.4588 0.1451);fill-opacity:1;"/>
<path id="Vector (Stroke)_17" fill-rule="evenodd" clip-rule="evenodd" d="M7.74885 14.3882C7.78076 14.3651 7.82473 14.3688 7.85238 14.3968L9.76692 16.3396C9.78095 16.3538 9.78912 16.3728 9.78982 16.3928L9.85617 18.3107C9.85746 18.348 9.83267 18.3812 9.79653 18.3906C9.76039 18.4 9.72256 18.3831 9.70551 18.3498L7.72462 14.4892C7.70664 14.4542 7.71693 14.4112 7.74885 14.3882ZM8.10418 14.8796L9.68442 17.9594L9.63149 16.4294L8.10418 14.8796Z" fill="#E27525" style="fill:#E27525;fill:color(display-p3 0.8863 0.4588 0.1451);fill-opacity:1;"/>
<path id="Vector_18" d="M17.9076 16.3954L17.833 18.3133L19.8139 14.4526L17.9076 16.3954Z" fill="#E27525" style="fill:#E27525;fill:color(display-p3 0.8863 0.4588 0.1451);fill-opacity:1;"/>
<path id="Vector (Stroke)_18" fill-rule="evenodd" clip-rule="evenodd" d="M19.8602 14.3881C19.8922 14.4112 19.9025 14.4541 19.8845 14.4892L17.9036 18.3498C17.8866 18.3831 17.8486 18.4001 17.8124 18.3906C17.7763 18.3811 17.7515 18.3477 17.753 18.3103L17.8276 16.3924C17.8283 16.3726 17.8365 16.3538 17.8503 16.3397L19.7566 14.3969C19.7842 14.3688 19.8283 14.3651 19.8602 14.3881ZM17.9858 16.4294L17.9264 17.9561L19.5032 14.8829L17.9858 16.4294Z" fill="#E27525" style="fill:#E27525;fill:color(display-p3 0.8863 0.4588 0.1451);fill-opacity:1;"/>
<path id="Vector_19" d="M12.5204 14.6675L12.0811 17.0897L12.6364 19.95L12.7607 16.1803L12.5204 14.6675Z" fill="#E27525" style="fill:#E27525;fill:color(display-p3 0.8863 0.4588 0.1451);fill-opacity:1;"/>
<path id="Vector (Stroke)_19" fill-rule="evenodd" clip-rule="evenodd" d="M12.5209 14.5879C12.5598 14.5883 12.5927 14.6167 12.5988 14.6551L12.8391 16.168C12.8399 16.173 12.8402 16.1781 12.8401 16.1831L12.7157 19.9528C12.7144 19.9934 12.6828 20.0264 12.6424 20.0297C12.6019 20.0329 12.5655 20.0052 12.5577 19.9654L12.0024 17.1051C12.0006 17.0954 12.0005 17.0854 12.0023 17.0757L12.4416 14.6534C12.4485 14.6151 12.482 14.5875 12.5209 14.5879ZM12.1619 17.0894L12.5796 19.2412L12.6804 16.1855L12.5148 15.1432L12.1619 17.0894Z" fill="#E27525" style="fill:#E27525;fill:color(display-p3 0.8863 0.4588 0.1451);fill-opacity:1;"/>
<path id="Vector_20" d="M15.0895 14.6675L14.8574 16.1721L14.9735 19.95L15.5288 17.0897L15.0895 14.6675Z" fill="#E27525" style="fill:#E27525;fill:color(display-p3 0.8863 0.4588 0.1451);fill-opacity:1;"/>
<path id="Vector (Stroke)_20" fill-rule="evenodd" clip-rule="evenodd" d="M15.0881 14.5879C15.1271 14.5874 15.1607 14.6151 15.1677 14.6534L15.6069 17.0757C15.6087 17.0854 15.6086 17.0954 15.6067 17.1051L15.0514 19.9654C15.0437 20.0052 15.0072 20.0329 14.9667 20.0297C14.9262 20.0264 14.8947 19.9932 14.8934 19.9526L14.7774 16.1747C14.7772 16.1698 14.7775 16.1649 14.7783 16.1601L15.0104 14.6555C15.0163 14.617 15.0492 14.5884 15.0881 14.5879ZM15.0955 15.1496L14.937 16.1772L15.0309 19.2341L15.4473 17.0894L15.0955 15.1496Z" fill="#E27525" style="fill:#E27525;fill:color(display-p3 0.8863 0.4588 0.1451);fill-opacity:1;"/>
<path id="Vector_21" d="M15.5289 17.09L14.9736 19.9502L15.3715 20.2313L17.8331 18.3134L17.9077 16.3955L15.5289 17.09Z" fill="#F5841F" style="fill:#F5841F;fill:color(display-p3 0.9608 0.5176 0.1216);fill-opacity:1;"/>
<path id="Vector (Stroke)_21" fill-rule="evenodd" clip-rule="evenodd" d="M17.9564 16.3328C17.9766 16.3486 17.988 16.3731 17.987 16.3988L17.9125 18.3167C17.9115 18.3402 17.9003 18.362 17.8818 18.3765L15.4202 20.2944C15.3924 20.316 15.3538 20.3169 15.3251 20.2966L14.9273 20.0155C14.9017 19.9974 14.889 19.966 14.895 19.9352L15.4503 17.0749C15.456 17.0456 15.4776 17.0219 15.5063 17.0136L17.885 16.3191C17.9096 16.3119 17.9362 16.317 17.9564 16.3328ZM15.5976 17.153L15.0614 19.915L15.3688 20.1322L17.7545 18.2735L17.8233 16.5033L15.5976 17.153Z" fill="#F5841F" style="fill:#F5841F;fill:color(display-p3 0.9608 0.5176 0.1216);fill-opacity:1;"/>
<path id="Vector_22" d="M9.70996 16.3955L9.77631 18.3134L12.2379 20.2313L12.6357 19.9502L12.0804 17.09L9.70996 16.3955Z" fill="#F5841F" style="fill:#F5841F;fill:color(display-p3 0.9608 0.5176 0.1216);fill-opacity:1;"/>
<path id="Vector (Stroke)_22" fill-rule="evenodd" clip-rule="evenodd" d="M9.6617 16.3327C9.68192 16.317 9.70846 16.3119 9.73303 16.3191L12.1035 17.0136C12.1321 17.022 12.1536 17.0456 12.1593 17.0749L12.7146 19.9352C12.7206 19.966 12.708 19.9974 12.6824 20.0155L12.2845 20.2966C12.2558 20.3169 12.2172 20.316 12.1895 20.2944L9.72794 18.3765C9.70931 18.362 9.69807 18.3399 9.69726 18.3163L9.63091 16.3984C9.63002 16.3728 9.64148 16.3484 9.6617 16.3327ZM9.79413 16.5032L9.85537 18.2736L12.2408 20.1322L12.5482 19.915L12.012 17.153L9.79413 16.5032Z" fill="#F5841F" style="fill:#F5841F;fill:color(display-p3 0.9608 0.5176 0.1216);fill-opacity:1;"/>
<path id="Vector_23" d="M15.5785 22.8684L15.6033 22.083L15.3878 21.9011H12.2218L12.0146 22.083L12.0311 22.8684L9.37891 21.6118L10.3072 22.3724L12.1886 23.6703H15.4127L17.3024 22.3724L18.2224 21.6118L15.5785 22.8684Z" fill="#C0AC9D" style="fill:#C0AC9D;fill:color(display-p3 0.7529 0.6745 0.6157);fill-opacity:1;"/>
<path id="Vector (Stroke)_23" fill-rule="evenodd" clip-rule="evenodd" d="M9.3112 21.5693C9.33275 21.5353 9.37631 21.5227 9.41273 21.5399L11.9484 22.7413L11.9345 22.0849C11.934 22.0613 11.9439 22.0388 11.9616 22.0233L12.1688 21.8414C12.1834 21.8286 12.2021 21.8216 12.2214 21.8216H15.3875C15.4064 21.8216 15.4246 21.8282 15.439 21.8404L15.6544 22.0223C15.673 22.038 15.6834 22.0614 15.6827 22.0857L15.662 22.7404L18.1878 21.54C18.2241 21.5227 18.2677 21.5352 18.2893 21.5691C18.3109 21.6031 18.3039 21.6478 18.2728 21.6734L17.3474 22.4385L15.4575 23.7362C15.4442 23.7453 15.4285 23.7502 15.4123 23.7502H12.1883C12.1721 23.7502 12.1563 23.7453 12.143 23.7361L10.2561 22.4344L9.32804 21.6737C9.29687 21.6481 9.28965 21.6034 9.3112 21.5693ZM9.93234 21.9626L10.3548 22.3088L12.2131 23.5907H15.3876L17.254 22.3088L17.6763 21.9596L15.6124 22.9406C15.5873 22.9525 15.5578 22.9505 15.5345 22.9353C15.5112 22.9201 15.4976 22.8938 15.4984 22.866L15.522 22.1192L15.3584 21.9811H12.2515L12.0947 22.1186L12.1105 22.8669C12.1111 22.8945 12.0974 22.9205 12.0742 22.9355C12.051 22.9505 12.0216 22.9525 11.9967 22.9406L9.93234 21.9626Z" fill="#C0AC9D" style="fill:#C0AC9D;fill:color(display-p3 0.7529 0.6745 0.6157);fill-opacity:1;"/>
<path id="Vector_24" d="M15.3714 20.2312L14.9735 19.9502H12.6362L12.2385 20.2312L12.0146 22.083L12.2219 21.9012H15.3879L15.6035 22.083L15.3714 20.2312Z" fill="#161616" style="fill:#161616;fill:color(display-p3 0.0863 0.0863 0.0863);fill-opacity:1;"/>
<path id="Vector (Stroke)_24" fill-rule="evenodd" clip-rule="evenodd" d="M12.5899 19.8852C12.6034 19.8757 12.6194 19.8706 12.6359 19.8706H14.9732C14.9897 19.8706 15.0057 19.8757 15.0192 19.8852L15.417 20.1663C15.4353 20.1792 15.4474 20.1992 15.4502 20.2215L15.6823 22.0733C15.6863 22.1059 15.67 22.1376 15.6412 22.1533C15.6123 22.169 15.5768 22.1653 15.5517 22.1442L15.3585 21.9811H12.2516L12.0669 22.1431C12.0421 22.165 12.0064 22.1692 11.9771 22.1537C11.9479 22.1383 11.9312 22.1065 11.9351 22.0736L12.159 20.2218C12.1617 20.1994 12.1737 20.1793 12.1921 20.1663L12.5899 19.8852ZM12.6612 20.0301L12.3131 20.2761L12.1185 21.8856L12.1689 21.8414C12.1835 21.8286 12.2022 21.8216 12.2215 21.8216H15.3876C15.4064 21.8216 15.4247 21.8282 15.439 21.8404L15.4986 21.8907L15.2963 20.2762L14.9478 20.0301H12.6612Z" fill="#161616" style="fill:#161616;fill:color(display-p3 0.0863 0.0863 0.0863);fill-opacity:1;"/>
<path id="Vector_25" d="M23.825 10.4348L24.5295 7.01233L23.4686 3.82959L15.3711 9.82309L18.4874 12.4519L22.8884 13.7333L23.8582 12.6008L23.4355 12.2948L24.1068 11.6831L23.593 11.2863L24.2643 10.7738L23.825 10.4348Z" fill="#763E1A" style="fill:#763E1A;fill:color(display-p3 0.4627 0.2431 0.1020);fill-opacity:1;"/>
<path id="Vector (Stroke)_25" fill-rule="evenodd" clip-rule="evenodd" d="M23.4923 3.7537C23.5167 3.7614 23.5359 3.7803 23.5439 3.80453L24.6048 6.98727C24.6093 7.00058 24.6101 7.01483 24.6073 7.02857L23.9128 10.4022L24.3127 10.7108C24.3323 10.7259 24.3438 10.7493 24.3437 10.7741C24.3437 10.7989 24.3321 10.8223 24.3124 10.8373L23.7236 11.2868L24.1552 11.6202C24.1739 11.6346 24.1852 11.6565 24.1861 11.6801C24.1871 11.7036 24.1776 11.7264 24.1602 11.7422L23.5614 12.2879L23.9046 12.5363C23.9226 12.5494 23.9344 12.5694 23.937 12.5915C23.9397 12.6136 23.9329 12.6359 23.9184 12.6528L22.9487 13.7853C22.9283 13.8091 22.8959 13.8188 22.8658 13.81L18.4648 12.5286C18.4541 12.5255 18.4442 12.5202 18.4357 12.513L15.3193 9.8842C15.3007 9.86848 15.2903 9.84509 15.2911 9.82071C15.2918 9.79634 15.3037 9.77366 15.3233 9.75915L23.4208 3.76565C23.4414 3.75045 23.4679 3.74601 23.4923 3.7537ZM15.4993 9.82734L18.5256 12.3802L22.861 13.6425L23.741 12.6148L23.3884 12.3596C23.369 12.3455 23.3569 12.3234 23.3555 12.2995C23.3542 12.2755 23.3637 12.2522 23.3815 12.2361L23.9825 11.6883L23.5439 11.3496C23.5243 11.3344 23.5128 11.311 23.5129 11.2862C23.5129 11.2615 23.5245 11.2381 23.5442 11.2231L24.133 10.7736L23.7759 10.4981C23.7518 10.4795 23.7404 10.4487 23.7465 10.4189L24.4468 7.01739L23.4274 3.95924L15.4993 9.82734Z" fill="#763E1A" style="fill:#763E1A;fill:color(display-p3 0.4627 0.2431 0.1020);fill-opacity:1;"/>
<path id="Vector_26" d="M3.08008 7.01233L3.79286 10.4348L3.33701 10.7738L4.01664 11.2863L3.50278 11.6831L4.17412 12.2948L3.75142 12.6008L4.72114 13.7333L9.12219 12.4519L12.2385 9.82309L4.14097 3.82959L3.08008 7.01233Z" fill="#763E1A" style="fill:#763E1A;fill:color(display-p3 0.4627 0.2431 0.1020);fill-opacity:1;"/>
<path id="Vector (Stroke)_26" fill-rule="evenodd" clip-rule="evenodd" d="M4.11662 3.7537C4.14098 3.74601 4.16755 3.75045 4.18808 3.76565L12.2856 9.75915C12.3052 9.77366 12.3171 9.79634 12.3179 9.82071C12.3187 9.84509 12.3082 9.86848 12.2896 9.8842L9.17328 12.513C9.16477 12.5202 9.15485 12.5255 9.14416 12.5286L4.7431 13.81C4.71302 13.8188 4.68061 13.8091 4.66023 13.7853L3.69051 12.6528C3.67602 12.6359 3.66927 12.6136 3.6719 12.5915C3.67452 12.5694 3.68628 12.5494 3.70433 12.5363L4.04758 12.2879L3.44873 11.7422C3.43131 11.7264 3.42181 11.7036 3.42276 11.6801C3.42372 11.6565 3.43505 11.6346 3.4537 11.6202L3.88486 11.2872L3.28867 10.8376C3.26861 10.8225 3.25685 10.7988 3.25694 10.7736C3.25702 10.7485 3.26894 10.7249 3.2891 10.7099L3.70407 10.4013L3.00168 7.02875C2.9988 7.01495 2.99964 7.00064 3.00409 6.98727L4.06498 3.80453C4.07306 3.7803 4.09226 3.7614 4.11662 3.7537ZM4.18154 3.95924L3.16221 7.0173L3.87061 10.4187C3.87694 10.4491 3.86504 10.4804 3.84012 10.4989L3.46973 10.7744L4.06433 11.2228C4.08418 11.2378 4.09592 11.2611 4.09606 11.286C4.0962 11.3109 4.08474 11.3344 4.06506 11.3496L3.62639 11.6883L4.2275 12.2361C4.24524 12.2522 4.25476 12.2755 4.25341 12.2995C4.25206 12.3234 4.23999 12.3455 4.22054 12.3596L3.86795 12.6148L4.74792 13.6425L9.08335 12.3802L12.1096 9.82734L4.18154 3.95924Z" fill="#763E1A" style="fill:#763E1A;fill:color(display-p3 0.4627 0.2431 0.1020);fill-opacity:1;"/>
<path id="Vector_27" d="M22.8888 13.7335L18.4878 12.4521L19.8139 14.4527L17.833 18.3133L20.4521 18.2803H24.3641L22.8888 13.7335Z" fill="#F5841F" style="fill:#F5841F;fill:color(display-p3 0.9608 0.5176 0.1216);fill-opacity:1;"/>
<path id="Vector (Stroke)_27" fill-rule="evenodd" clip-rule="evenodd" d="M18.4232 12.405C18.443 12.3781 18.4776 12.3664 18.5097 12.3757L22.9108 13.6571C22.9361 13.6645 22.9562 13.6839 22.9643 13.709L24.4396 18.2558C24.4475 18.2801 24.4433 18.3067 24.4283 18.3273C24.4132 18.348 24.3893 18.3602 24.3637 18.3602H20.4523L17.8337 18.3932C17.8057 18.3936 17.7796 18.3793 17.7649 18.3555C17.7502 18.3317 17.749 18.302 17.7617 18.2771L19.7213 14.458L18.421 12.4964C18.4025 12.4685 18.4034 12.432 18.4232 12.405ZM18.6742 12.5898L19.88 14.4088C19.896 14.4329 19.8977 14.4637 19.8845 14.4893L17.9641 18.2321L20.4517 18.2007L24.254 18.2007L22.8256 13.7984L18.6742 12.5898Z" fill="#F5841F" style="fill:#F5841F;fill:color(display-p3 0.9608 0.5176 0.1216);fill-opacity:1;"/>
<path id="Vector_28" d="M9.12191 12.4521L4.72091 13.7335L3.25391 18.2803H7.15764L9.77667 18.3133L7.79583 14.4527L9.12191 12.4521Z" fill="#F5841F" style="fill:#F5841F;fill:color(display-p3 0.9608 0.5176 0.1216);fill-opacity:1;"/>
<path id="Vector (Stroke)_28" fill-rule="evenodd" clip-rule="evenodd" d="M9.18581 12.405C9.20565 12.432 9.20654 12.4685 9.18805 12.4964L7.88777 14.458L9.8473 18.2771C9.86006 18.302 9.85886 18.3317 9.84414 18.3555C9.82941 18.3793 9.8033 18.3936 9.77534 18.3932L7.15731 18.3602H3.25358C3.22808 18.3602 3.20412 18.348 3.18911 18.3274C3.1741 18.3068 3.16985 18.2802 3.17768 18.256L4.64469 13.7092C4.65281 13.684 4.67289 13.6645 4.69829 13.6571L9.09929 12.3757C9.13142 12.3664 9.16597 12.3781 9.18581 12.405ZM4.78349 13.7984L3.3631 18.2007H7.15831L9.64494 18.2321L7.72454 14.4893C7.71138 14.4637 7.71309 14.4329 7.72903 14.4088L8.9348 12.5898L4.78349 13.7984Z" fill="#F5841F" style="fill:#F5841F;fill:color(display-p3 0.9608 0.5176 0.1216);fill-opacity:1;"/>
<path id="Vector_29" d="M15.0894 14.6676L15.3712 9.82323L16.6476 6.37598H10.9619L12.2383 9.82323L12.5201 14.6676L12.6278 16.1887L12.6361 19.9502H14.9734L14.9817 16.1887L15.0894 14.6676Z" fill="#F5841F" style="fill:#F5841F;fill:color(display-p3 0.9608 0.5176 0.1216);fill-opacity:1;"/>
<path id="Vector (Stroke)_29" fill-rule="evenodd" clip-rule="evenodd" d="M10.8961 6.33057C10.911 6.30916 10.9355 6.29639 10.9616 6.29639H16.6473C16.6734 6.29639 16.6978 6.30916 16.7127 6.33057C16.7276 6.35199 16.7311 6.37935 16.722 6.40383L15.4498 9.83991L15.1687 14.6734L15.0611 16.1918L15.0528 19.9505C15.0527 19.9945 15.017 20.0301 14.9731 20.0301H12.6358C12.5918 20.0301 12.5561 19.9945 12.556 19.9505L12.5478 16.1918L12.4402 14.6734L12.4401 14.6724L12.159 9.83991L10.8868 6.40383C10.8777 6.37935 10.8812 6.35199 10.8961 6.33057ZM11.0762 6.45588L12.3127 9.7957C12.3155 9.8031 12.3171 9.81087 12.3176 9.81876L12.5993 14.6622L12.5994 14.6632L12.7074 16.1887L12.7154 19.8706H14.8935L14.9016 16.1832L15.0095 14.6632L15.0096 14.6622L15.2913 9.81876C15.2917 9.81087 15.2934 9.8031 15.2961 9.7957L16.5327 6.45588H11.0762Z" fill="#F5841F" style="fill:#F5841F;fill:color(display-p3 0.9608 0.5176 0.1216);fill-opacity:1;"/>
</g>
</g>
</svg>
