<svg width="28" height="28" viewBox="0 0 28 28" fill="none" xmlns="http://www.w3.org/2000/svg">
<rect width="28" height="28" rx="8" fill="#A99FEC"/>
<g clip-path="url(#clip0_1691_30154)">
<path d="M6.07422 18.4282C6.07422 20.1123 6.9937 20.5 7.94997 20.5C9.97281 20.5 11.493 18.7675 12.4002 17.3984C12.2899 17.7013 12.2286 18.0042 12.2286 18.295C12.2286 19.0946 12.6945 19.664 13.614 19.664C14.8767 19.664 16.2253 18.5736 16.9241 17.3984C16.875 17.568 16.8505 17.7255 16.8505 17.8709C16.8505 18.4282 17.1693 18.7796 17.8191 18.7796C19.8664 18.7796 21.9261 15.2055 21.9261 12.0797C21.9261 9.64445 20.6756 7.5 17.5371 7.5C12.0202 7.5 6.07422 14.1393 6.07422 18.4282ZM15.6368 11.8131C15.6368 11.2074 15.9801 10.7833 16.4827 10.7833C16.9731 10.7833 17.3164 11.2074 17.3164 11.8131C17.3164 12.4189 16.9731 12.8551 16.4827 12.8551C15.9801 12.8551 15.6368 12.4189 15.6368 11.8131ZM18.2604 11.8131C18.2604 11.2074 18.6037 10.7833 19.1063 10.7833C19.5967 10.7833 19.94 11.2074 19.94 11.8131C19.94 12.4189 19.5967 12.8551 19.1063 12.8551C18.6037 12.8551 18.2604 12.4189 18.2604 11.8131Z" fill="white"/>
</g>
<defs>
<clipPath id="clip0_1691_30154">
<rect width="16" height="13" fill="white" transform="translate(6 7.5)"/>
</clipPath>
</defs>
</svg>
