<svg width="40" height="41" viewBox="0 0 40 41" fill="none" xmlns="http://www.w3.org/2000/svg">
<path d="M20 40.5C31.0457 40.5 40 31.5457 40 20.5C40 9.4543 31.0457 0.5 20 0.5C8.9543 0.5 0 9.4543 0 20.5C0 31.5457 8.9543 40.5 20 40.5Z" fill="#FF0420" style="fill:#FF0420;fill:color(display-p3 1.0000 0.0157 0.1255);fill-opacity:1;"/>
<path d="M14.1678 25.812C12.9758 25.812 11.9998 25.532 11.2398 24.972C10.4878 24.404 10.1118 23.588 10.1118 22.54C10.1118 22.316 10.1358 22.052 10.1838 21.732C10.3118 21.012 10.4958 20.148 10.7358 19.132C11.4158 16.38 13.1758 15.004 16.0078 15.004C16.7758 15.004 17.4718 15.132 18.0798 15.396C18.6878 15.644 19.1678 16.028 19.5198 16.54C19.8718 17.044 20.0478 17.644 20.0478 18.34C20.0478 18.548 20.0238 18.812 19.9758 19.132C19.8238 20.02 19.6478 20.892 19.4318 21.732C19.0798 23.1 18.4798 24.132 17.6158 24.812C16.7598 25.484 15.6078 25.812 14.1678 25.812ZM14.3838 23.652C14.9438 23.652 15.4158 23.484 15.8078 23.156C16.2078 22.828 16.4958 22.324 16.6638 21.636C16.8958 20.692 17.0718 19.876 17.1918 19.172C17.2318 18.964 17.2558 18.748 17.2558 18.524C17.2558 17.612 16.7838 17.156 15.8318 17.156C15.2718 17.156 14.7918 17.324 14.3918 17.652C13.9998 17.98 13.7198 18.484 13.5518 19.172C13.3678 19.844 13.1918 20.66 13.0078 21.636C12.9678 21.836 12.9438 22.044 12.9438 22.268C12.9358 23.196 13.4238 23.652 14.3838 23.652Z" fill="white" style="fill:white;fill-opacity:1;"/>
<path d="M20.744 25.668C20.632 25.668 20.552 25.636 20.488 25.564C20.44 25.484 20.424 25.396 20.44 25.292L22.512 15.532C22.528 15.42 22.584 15.332 22.68 15.26C22.768 15.188 22.864 15.156 22.968 15.156H26.96C28.072 15.156 28.96 15.388 29.632 15.844C30.312 16.308 30.656 16.972 30.656 17.844C30.656 18.092 30.624 18.356 30.568 18.628C30.32 19.78 29.816 20.628 29.048 21.18C28.296 21.732 27.264 22.004 25.952 22.004H23.928L23.24 25.292C23.216 25.404 23.168 25.492 23.072 25.564C22.984 25.636 22.888 25.668 22.784 25.668H20.744ZM26.056 19.932C26.48 19.932 26.84 19.82 27.152 19.588C27.472 19.356 27.68 19.028 27.784 18.596C27.816 18.428 27.832 18.276 27.832 18.148C27.832 17.86 27.744 17.636 27.576 17.484C27.408 17.324 27.112 17.244 26.704 17.244H24.904L24.336 19.932H26.056Z" fill="white" style="fill:white;fill-opacity:1;"/>
</svg>
