<svg viewBox="0 0 70 71" fill="none" xmlns="http://www.w3.org/2000/svg">
  <defs>
    <filter id="filter0_d_2591_25514" x="0" y="0.5" width="70" height="70" filterUnits="userSpaceOnUse" color-interpolation-filters="sRGB">
      <feFlood flood-opacity="0" result="BackgroundImageFix"/>
      <feColorMatrix in="SourceAlpha" type="matrix" values="0 0 0 0 0 0 0 0 0 0 0 0 0 0 0 0 0 0 127 0" result="hardAlpha"/>
      <feOffset dy="3"/>
      <feGaussianBlur stdDeviation="7.5"/>
      <feColorMatrix type="matrix" values="0 0 0 0 0 0 0 0 0 0.0666667 0 0 0 0 0.2 0 0 0 0.05 0"/>
      <feBlend mode="normal" in2="BackgroundImageFix" result="effect1_dropShadow_2591_25514"/>
      <feBlend mode="normal" in="SourceGraphic" in2="effect1_dropShadow_2591_25514" result="shape"/>
    </filter>
  </defs>
  <g filter="url(#filter0_d_2591_25514)" transform="matrix(1.75, 0, 0, 1.774999976158142, -26.25, -22.187499999999996)">
    <rect x="15" y="12.5" width="40" height="40" rx="20" fill="#8247E5" style="fill:#8247E5;fill:color(display-p3 0.5098 0.2784 0.8980);fill-opacity:1;"/>
    <path d="M36.1095 31.4025L36.1096 31.4025L36.1174 31.3979L38.704 29.872C38.7999 29.8179 38.9082 29.7895 39.0183 29.7895C39.1194 29.7895 39.219 29.8135 39.3089 29.8593L39.3329 29.8732L43.1858 32.0977L43.1858 32.0978L43.196 32.1034C43.3914 32.2103 43.5 32.4012 43.5 32.6277V37.0457C43.5 37.2474 43.3785 37.4571 43.182 37.5769L39.3727 39.7634C39.1507 39.8822 38.9099 39.8704 38.7428 39.7708L38.7428 39.7707L38.7357 39.7666L34.9168 37.5741L34.9169 37.574L34.9077 37.569C34.7116 37.4618 34.6027 37.2703 34.6027 37.0447V35.8035L35.3633 35.3589V36.0156H35.3632L35.3634 36.0262C35.3693 36.3067 35.4469 36.5811 35.5888 36.8232C35.7306 37.0654 35.932 37.2672 36.1739 37.4095L36.1739 37.4095L36.1787 37.4123L38.2048 38.5747L38.206 38.5754C38.4535 38.7164 38.7334 38.7906 39.0183 38.7906C39.3031 38.7906 39.5831 38.7164 39.8305 38.5754L39.8306 38.5754L39.8372 38.5715L41.8564 37.3792C42.3864 37.0869 42.6733 36.5493 42.6733 35.9826V33.6237C42.6733 33.0308 42.3312 32.5129 41.8677 32.2328L41.8677 32.2327L41.8579 32.2271L39.8318 31.0647L39.8303 31.0639C39.5829 30.923 39.303 30.8489 39.0183 30.8489C38.7336 30.8489 38.4537 30.923 38.2063 31.0639L38.2063 31.0638L38.2037 31.0653L35.6134 32.5604L35.6134 32.5604L35.611 32.5618L33.8528 33.5895L33.8504 33.5909L31.2686 35.081C31.0468 35.1996 30.8062 35.1878 30.6392 35.0882L30.6392 35.0881L30.632 35.084L26.8132 32.8915L26.8133 32.8914L26.8036 32.8861C26.6083 32.7796 26.5001 32.5893 26.5001 32.3621V27.9441H26.5002L26.5001 27.937C26.4986 27.8317 26.5259 27.7281 26.5792 27.6373L26.1598 27.3913L26.5792 27.6373C26.6324 27.5465 26.7095 27.472 26.8021 27.4219L26.8022 27.4221L26.8132 27.4157L30.6307 25.224C30.6309 25.2239 30.6311 25.2238 30.6313 25.2237C30.7277 25.1688 30.8368 25.14 30.9477 25.14C31.0582 25.14 31.1667 25.1686 31.2628 25.2229L35.0129 27.4138L35.0193 27.4176L35.0258 27.4211C35.2218 27.528 35.3303 27.7188 35.3303 27.9451V29.1863L34.5696 29.6309V28.9742C34.5696 28.3821 34.2283 27.862 33.7622 27.5831L33.7622 27.5831L33.7543 27.5785L31.7281 26.4162L31.7267 26.4153C31.4793 26.2745 31.1994 26.2004 30.9147 26.2004C30.6299 26.2004 30.3501 26.2745 30.1027 26.4153L30.1011 26.4162L28.0807 27.5759C27.5477 27.8677 27.2597 28.4064 27.2597 28.9742V31.333H27.2596L27.2598 31.3438C27.2659 31.6245 27.3437 31.899 27.4858 32.1411L27.9044 31.8954L27.4858 32.1411C27.6279 32.3833 27.8296 32.585 28.0717 32.7272L28.0738 32.7284L30.132 33.9238L30.132 33.9238L30.1357 33.926C30.3832 34.0669 30.663 34.1409 30.9477 34.1409C31.2325 34.1409 31.5123 34.0669 31.7598 33.926L31.7598 33.926L31.7665 33.9221L34.3528 32.3963L36.1095 31.4025Z" fill="white" stroke="white" style="fill:white;fill-opacity:1;stroke:white;stroke-opacity:1;"/>
  </g>
</svg>