<svg width="16" height="16" viewBox="0 0 16 16" fill="none" xmlns="http://www.w3.org/2000/svg">
<g id="arrow-rotate-right-left, repeat, refresh">
<path id="Icon" d="M12.8412 2.5V4.83333C12.8412 5.01743 12.692 5.16667 12.5079 5.16667H10.1746M3.16667 13.5V11.1667C3.16667 10.9826 3.31591 10.8333 3.5 10.8333H5.83333M2.54255 8.6875C2.51447 8.46228 2.5 8.23283 2.5 8C2.5 4.96243 4.96243 2.5 8 2.5C9.78439 2.5 11.4074 3.34975 12.4214 4.66667M13.4574 7.3125C13.4855 7.53772 13.5 7.76717 13.5 8C13.5 11.0376 11.0376 13.5 8 13.5C6.21561 13.5 4.59258 12.6502 3.57856 11.3333" stroke="#333333" style="stroke:#333333;stroke:color(display-p3 0.2000 0.2000 0.2000);stroke-opacity:1;" stroke-width="1.5" stroke-linecap="round" stroke-linejoin="round"/>
</g>
</svg>
