<svg width="20" height="20" viewBox="0 0 20 20" fill="none" xmlns="http://www.w3.org/2000/svg">
<g id="Group 1750 (2) 1">
<path id="Vector" d="M3 1.5C3 0.671573 2.32843 0 1.5 0C0.671573 0 0 0.671573 0 1.5C0 2.32843 0.671573 3 1.5 3C2.32843 3 3 2.32843 3 1.5Z" fill="#C1C1C3" fill-opacity="0.2" style="fill:#C1C1C3;fill:color(display-p3 0.7569 0.7569 0.7647);fill-opacity:0.2;"/>
<path id="Vector_2" d="M18 1.5C18 0.671573 17.3284 0 16.5 0C15.6716 0 15 0.671573 15 1.5C15 2.32843 15.6716 3 16.5 3C17.3284 3 18 2.32843 18 1.5Z" fill="#C1C1C3" fill-opacity="0.2" style="fill:#C1C1C3;fill:color(display-p3 0.7569 0.7569 0.7647);fill-opacity:0.2;"/>
<path id="Vector_3" d="M3 16.5C3 15.6716 2.32843 15 1.5 15C0.671573 15 0 15.6716 0 16.5C0 17.3284 0.671573 18 1.5 18C2.32843 18 3 17.3284 3 16.5Z" fill="#C1C1C3" fill-opacity="0.2" style="fill:#C1C1C3;fill:color(display-p3 0.7569 0.7569 0.7647);fill-opacity:0.2;"/>
<path id="Vector_4" d="M18 16.5C18 15.6716 17.3284 15 16.5 15C15.6716 15 15 15.6716 15 16.5C15 17.3284 15.6716 18 16.5 18C17.3284 18 18 17.3284 18 16.5Z" fill="#C1C1C3" fill-opacity="0.2" style="fill:#C1C1C3;fill:color(display-p3 0.7569 0.7569 0.7647);fill-opacity:0.2;"/>
</g>
</svg>
