<svg width="16" height="16" viewBox="0 0 16 16" fill="none" xmlns="http://www.w3.org/2000/svg">
<g id="icon-matic">
<path id="Vector" d="M8.03958 10.1135V10.1972H8.03947L8.03969 10.2077C8.04405 10.415 8.10137 10.6178 8.20619 10.7967C8.31102 10.9756 8.45986 11.1248 8.63857 11.2299L8.63855 11.23L8.64337 11.2327L9.90971 11.9592L9.91094 11.9599C10.0939 12.0642 10.3008 12.119 10.5114 12.119C10.722 12.119 10.929 12.0642 11.1119 11.9599L11.112 11.96L11.1186 11.9561L12.3783 11.2122C12.7713 10.9943 12.9833 10.5939 12.9833 10.1765V8.70223C12.9833 8.2585 12.7285 7.87737 12.3893 7.67242L12.3893 7.67231L12.3795 7.66667L11.1132 6.94018L11.1117 6.93936C10.9288 6.83522 10.7219 6.78047 10.5114 6.78047C10.3009 6.78047 10.0941 6.83522 9.91116 6.93936L9.91115 6.93935L9.90858 6.94083L8.28963 7.87525L8.28963 7.87524L8.28726 7.87663L7.18925 8.51844L7.1881 8.51911L5.57711 9.44894C5.49232 9.49329 5.41325 9.48195 5.37054 9.45647L5.37057 9.45641L5.36338 9.45229L2.97662 8.08198L2.97668 8.08187L2.96701 8.0766C2.90883 8.04488 2.87507 7.99136 2.87507 7.91374V5.15245H2.87512L2.87502 5.14533C2.87457 5.1138 2.88277 5.08275 2.89872 5.05554C2.91467 5.02834 2.93777 5.00603 2.96551 4.99103L2.96559 4.99117L2.97662 4.98484L5.36202 3.61531C5.36218 3.61522 5.36234 3.61513 5.3625 3.61504C5.39447 3.59692 5.43059 3.5874 5.46734 3.5874C5.50365 3.5874 5.53934 3.59669 5.57102 3.61438L7.91346 4.98294L7.91985 4.98667L7.92635 4.99021C7.98528 5.02234 8.01891 5.07636 8.01891 5.15308V5.82127L7.91853 5.87994V5.79627C7.91853 5.35335 7.66433 4.97036 7.32261 4.76595L7.32265 4.76588L7.31474 4.76134L6.04839 4.03485L6.0484 4.03485L6.04695 4.03403C5.86403 3.92989 5.65716 3.87514 5.44668 3.87514C5.23619 3.87514 5.02932 3.92989 4.8464 4.03403L4.8464 4.03403L4.84486 4.03491L3.58367 4.75879C3.188 4.97627 2.97482 5.37766 2.97482 5.79627V7.27054H2.97471L2.97494 7.28133C2.97941 7.48875 3.03689 7.69158 3.14191 7.87051C3.24692 8.04944 3.39597 8.19852 3.57488 8.30358L3.57692 8.30476L4.86331 9.05192L4.8633 9.05194L4.86707 9.05408C5.04999 9.15822 5.25686 9.21297 5.46734 9.21297C5.67783 9.21297 5.8847 9.15822 6.06762 9.05408L6.06765 9.05413L6.07431 9.0502L7.68934 8.09743L8.78578 7.47713L8.78582 7.47721L8.79363 7.47259L10.4084 6.51997C10.4399 6.50252 10.4754 6.49336 10.5114 6.49336C10.5436 6.49336 10.5754 6.50067 10.6042 6.51467L10.6143 6.5205L13.0224 7.91085L13.0223 7.91097L13.0326 7.91656C13.0912 7.9486 13.125 8.00279 13.125 8.0797V10.841C13.125 10.8939 13.0902 10.9669 13.0179 11.0118L10.6423 12.3753C10.5573 12.42 10.4781 12.4086 10.4353 12.3831L10.4353 12.383L10.4281 12.3789L8.04137 11.0086L8.04143 11.0085L8.03227 11.0035C7.97291 10.9711 7.9392 10.9164 7.9392 10.8404V10.1722L8.03958 10.1135Z" fill="white" stroke="white" style="fill:white;fill:white;fill-opacity:1;stroke:white;stroke:white;stroke-opacity:1;"/>
</g>
</svg>
