<svg width="20" height="20" viewBox="0 0 20 20" fill="none" xmlns="http://www.w3.org/2000/svg">
<rect width="20" height="20" rx="10" fill="#2151F5"/>
<path d="M15.6109 10.0003C15.6109 13.0992 13.0987 15.6114 9.99978 15.6114C6.90085 15.6114 4.38867 13.0992 4.38867 10.0003C4.38867 6.90134 6.90085 4.38916 9.99978 4.38916C13.0987 4.38916 15.6109 6.90134 15.6109 10.0003Z" fill="white" stroke="white"/>
<path d="M12.1073 10.3989C11.9206 11.3882 11.0525 12.1362 10.0091 12.1362C8.82936 12.1362 7.87322 11.1801 7.87322 10.0003C7.87322 8.82057 8.82936 7.86443 10.0091 7.86443C11.0525 7.86443 11.9206 8.6129 12.1073 9.60177H14.2625C14.0615 7.42936 12.234 5.72852 10.0091 5.72852C7.6496 5.72852 5.7373 7.64123 5.7373 10.0003C5.7373 12.3599 7.65002 14.2722 10.0091 14.2722C12.234 14.2722 14.0615 12.5713 14.2625 10.3989H12.1073Z" fill="#2151F5"/>
</svg>
