<svg width="20" height="20" viewBox="0 0 20 20" fill="none" xmlns="http://www.w3.org/2000/svg">
<path d="M10.0041 3.84192C10.0284 3.07265 10.2361 1.9394 10.9587 1.19492C11.6295 0.503843 12.4461 0.167032 12.9547 0.0130547C13.151 -0.0463899 13.3394 0.104708 13.3297 0.313482C13.2957 1.0499 13.1059 2.14832 12.6163 2.73676C12.1548 3.29147 11.4124 4.02705 10.325 4.15082C10.147 4.17107 9.99832 4.02459 10.0041 3.84192Z" fill="#333333" style="fill:#333333;fill:color(display-p3 0.2000 0.2000 0.2000);fill-opacity:1;"/>
<path d="M11.8659 17.9219C12.3881 18.1259 12.9161 18.3324 13.3938 18.3324C14.4161 18.3324 17.3925 15.9256 17.4998 13.426C17.5052 13.2976 17.4301 13.1829 17.3202 13.1202C16.5631 12.6879 15.3267 11.6113 15.2837 10.0451C15.2336 8.21994 16.1316 6.77025 16.8112 6.17058C16.9642 6.03561 17.0167 5.79765 16.8802 5.64545C16.2618 4.95632 15.0177 4.0084 13.8827 4.03167C13.057 4.0486 12.313 4.3625 11.6745 4.63186C11.1848 4.83852 10.7571 5.01895 10.4023 5.01895C10.0663 5.01895 9.66283 4.83968 9.19975 4.63391C8.57625 4.3568 7.84463 4.03167 7.02392 4.03167C5.5037 4.03167 2.50001 5.31814 2.5 10.2844C2.5 12.9173 5.16327 18.4022 7.41064 18.3324C7.89592 18.3324 8.41458 18.1273 8.92917 17.9238C9.43592 17.7234 9.93883 17.5246 10.4023 17.5246C10.8497 17.5246 11.355 17.7221 11.8659 17.9219Z" fill="#333333" style="fill:#333333;fill:color(display-p3 0.2000 0.2000 0.2000);fill-opacity:1;"/>
</svg>
