<svg width="16" height="16" viewBox="0 0 16 16" fill="none" xmlns="http://www.w3.org/2000/svg">
<g id="check radio, circle, checkbox, check, checkmark, confirm">
<path id="Icon" fill-rule="evenodd" clip-rule="evenodd" d="M8.00016 1.3335C4.31826 1.3335 1.3335 4.31826 1.3335 8.00016C1.3335 11.6821 4.31826 14.6668 8.00016 14.6668C11.6821 14.6668 14.6668 11.6821 14.6668 8.00016C14.6668 4.31826 11.6821 1.3335 8.00016 1.3335ZM10.5161 6.75568C10.7493 6.47071 10.7073 6.0507 10.4223 5.81754C10.1374 5.58439 9.71734 5.62639 9.48419 5.91136L6.95067 9.00788L6.13823 8.19545C5.87788 7.9351 5.45577 7.9351 5.19543 8.19545C4.93508 8.45579 4.93508 8.8779 5.19543 9.13825L6.52876 10.4716C6.66194 10.6048 6.84525 10.6754 7.03337 10.666C7.22149 10.6566 7.39686 10.5681 7.51613 10.4223L10.5161 6.75568Z" fill="#1CC700" style="fill:#1CC700;fill:color(display-p3 0.1098 0.7804 0.0000);fill-opacity:1;"/>
</g>
</svg>
