<svg width="28" height="28" viewBox="0 0 28 28" fill="none" xmlns="http://www.w3.org/2000/svg">
<rect width="28" height="28" rx="8" fill="#2151F5"/>
<path d="M22.0554 13.9999C22.0554 18.4489 18.4488 22.0554 13.9999 22.0554C9.55093 22.0554 5.94434 18.4489 5.94434 13.9999C5.94434 9.55093 9.55093 5.94434 13.9999 5.94434C18.4488 5.94434 22.0554 9.55093 22.0554 13.9999Z" fill="white" stroke="white"/>
<path d="M16.9512 14.5581C16.6898 15.9431 15.4745 16.9904 14.0138 16.9904C12.3621 16.9904 11.0235 15.6517 11.0235 14.0001C11.0235 12.3484 12.3621 11.0098 14.0138 11.0098C15.4745 11.0098 16.6898 12.0577 16.9512 13.4421H19.9685C19.6871 10.4007 17.1285 8.01953 14.0138 8.01953C10.7104 8.01953 8.0332 10.6973 8.0332 14.0001C8.0332 17.3034 10.711 19.9806 14.0138 19.9806C17.1285 19.9806 19.6871 17.5995 19.9685 14.5581H16.9512Z" fill="#2151F5"/>
</svg>
