<svg width="88" height="88" viewBox="0 0 88 88" fill="none" xmlns="http://www.w3.org/2000/svg">
<rect width="88" height="88" rx="24" fill="#C1C1C3" fill-opacity="0.2"/>
<path d="M43.9998 20.6665C38.2008 20.6665 33.4998 25.3675 33.4998 31.1665C33.4998 36.9655 38.2008 41.6665 43.9998 41.6665C49.7988 41.6665 54.4998 36.9655 54.4998 31.1665C54.4998 25.3675 49.7988 20.6665 43.9998 20.6665Z" fill="#98979C"/>
<path d="M44.0033 43.9998C35.0622 43.9998 28.2192 49.3577 25.4406 56.8705C24.6463 59.0183 25.1901 61.1354 26.4528 62.6402C27.6834 64.1067 29.5829 64.9998 31.6292 64.9998H50.4165V57.5316C47.9207 55.3949 46.3332 52.2189 46.3332 48.6665C46.3332 47.0985 46.6425 45.6028 47.2034 44.237C46.1709 44.0809 45.103 43.9998 44.0033 43.9998Z" fill="#98979C"/>
<path fill-rule="evenodd" clip-rule="evenodd" d="M57.9998 41.6665C54.1338 41.6665 50.9998 44.8005 50.9998 48.6665C50.9998 51.4916 52.6734 53.9258 55.0832 55.0318V63.2724C55.0832 63.6269 55.2443 63.9621 55.521 64.1835L57.271 65.5835C57.6971 65.9243 58.3026 65.9243 58.7286 65.5835L60.4786 64.1835C60.7554 63.9621 60.9165 63.6269 60.9165 63.2724V61.3295L59.1665 59.7498L60.9165 57.9998V55.0318C63.3263 53.9258 64.9998 51.4916 64.9998 48.6665C64.9998 44.8005 61.8658 41.6665 57.9998 41.6665ZM55.6665 48.6665C55.6665 47.3778 56.7112 46.3332 57.9998 46.3332C59.2885 46.3332 60.3332 47.3778 60.3332 48.6665C60.3332 49.9552 59.2885 50.9998 57.9998 50.9998C56.7112 50.9998 55.6665 49.9552 55.6665 48.6665Z" fill="#98979C"/>
</svg>
