<svg width="20" height="20" viewBox="0 0 20 20" fill="none" xmlns="http://www.w3.org/2000/svg">
<g id="email-1, envelope">
<path id="Icon" d="M3.41002 15.6515L3.80726 14.8719H3.80726L3.41002 15.6515ZM2.68166 14.9232L3.46129 14.5259H3.46129L2.68166 14.9232ZM17.3183 14.9232L16.5387 14.5259L16.5387 14.5259L17.3183 14.9232ZM16.59 15.6515L16.9872 16.4311L16.59 15.6515ZM17.3183 5.07652L16.5387 5.47376L16.5387 5.47376L17.3183 5.07652ZM16.59 4.34816L16.9872 3.56853L16.9872 3.56853L16.59 4.34816ZM2.68166 5.07652L1.90203 4.67928V4.67928L2.68166 5.07652ZM3.41002 4.34816L3.01277 3.56853L3.01277 3.56853L3.41002 4.34816ZM11.0554 9.96967L11.6095 10.6469L11.0554 9.96967ZM8.9446 9.96967L8.39052 10.6469L8.9446 9.96967ZM16.625 6.83317V13.1665H18.375V6.83317H16.625ZM14.8333 14.9582H5.16667V16.7082H14.8333V14.9582ZM3.375 13.1665V6.83317H1.625V13.1665H3.375ZM5.16667 5.0415H14.8333V3.2915H5.16667V5.0415ZM5.16667 14.9582C4.68552 14.9582 4.37728 14.9575 4.14326 14.9384C3.91945 14.9201 3.84161 14.8894 3.80726 14.8719L3.01277 16.4311C3.33494 16.5953 3.66872 16.6554 4.00075 16.6826C4.32257 16.7088 4.71439 16.7082 5.16667 16.7082V14.9582ZM1.625 13.1665C1.625 13.6188 1.62432 14.0106 1.65061 14.3324C1.67774 14.6644 1.73787 14.9982 1.90203 15.3204L3.46129 14.5259C3.44378 14.4916 3.41309 14.4137 3.3948 14.1899C3.37568 13.9559 3.375 13.6476 3.375 13.1665H1.625ZM3.80726 14.8719C3.6583 14.796 3.53719 14.6749 3.46129 14.5259L1.90202 15.3204C2.1457 15.7986 2.53453 16.1875 3.01277 16.4311L3.80726 14.8719ZM16.625 13.1665C16.625 13.6477 16.6243 13.9559 16.6052 14.1899C16.5869 14.4137 16.5562 14.4916 16.5387 14.5259L18.098 15.3204C18.2621 14.9982 18.3223 14.6644 18.3494 14.3324C18.3757 14.0106 18.375 13.6188 18.375 13.1665H16.625ZM14.8333 16.7082C15.2856 16.7082 15.6774 16.7088 15.9992 16.6826C16.3313 16.6554 16.6651 16.5953 16.9872 16.4311L16.1927 14.8719C16.1584 14.8894 16.0806 14.9201 15.8567 14.9384C15.6227 14.9575 15.3145 14.9582 14.8333 14.9582V16.7082ZM16.5387 14.5259C16.4628 14.6749 16.3417 14.796 16.1927 14.8719L16.9872 16.4311C17.4655 16.1875 17.8543 15.7986 18.098 15.3204L16.5387 14.5259ZM18.375 6.83317C18.375 6.3809 18.3757 5.98907 18.3494 5.66725C18.3223 5.33522 18.2621 5.00145 18.098 4.67928L16.5387 5.47376C16.5562 5.50811 16.5869 5.58595 16.6052 5.80976C16.6243 6.04378 16.625 6.35202 16.625 6.83317H18.375ZM14.8333 5.0415C15.3145 5.0415 15.6227 5.04218 15.8567 5.0613C16.0806 5.07959 16.1584 5.11029 16.1927 5.12779L16.9872 3.56853C16.6651 3.40438 16.3313 3.34424 15.9992 3.31712C15.6774 3.29082 15.2856 3.2915 14.8333 3.2915V5.0415ZM18.098 4.67928C17.8543 4.20103 17.4655 3.81221 16.9872 3.56853L16.1927 5.12779C16.3417 5.20369 16.4628 5.3248 16.5387 5.47376L18.098 4.67928ZM3.375 6.83317C3.375 6.35202 3.37568 6.04378 3.3948 5.80976C3.41309 5.58595 3.44378 5.50811 3.46129 5.47376L1.90203 4.67928C1.73787 5.00145 1.67774 5.33522 1.65061 5.66725C1.62432 5.98907 1.625 6.3809 1.625 6.83317H3.375ZM5.16667 3.2915C4.71439 3.2915 4.32257 3.29082 4.00075 3.31712C3.66872 3.34424 3.33494 3.40438 3.01277 3.56853L3.80726 5.12779C3.84161 5.11029 3.91945 5.07959 4.14326 5.0613C4.37728 5.04218 4.68552 5.0415 5.16667 5.0415V3.2915ZM3.46129 5.47376C3.53719 5.3248 3.6583 5.20369 3.80726 5.12779L3.01277 3.56853C2.53453 3.81221 2.1457 4.20103 1.90203 4.67928L3.46129 5.47376ZM16.9459 4.0196L10.5013 9.29246L11.6095 10.6469L18.0541 5.37402L16.9459 4.0196ZM9.49869 9.29246L3.05408 4.0196L1.94592 5.37402L8.39052 10.6469L9.49869 9.29246ZM10.5013 9.29246C10.2097 9.53106 9.79031 9.53106 9.49869 9.29246L8.39052 10.6469C9.32678 11.4129 10.6732 11.4129 11.6095 10.6469L10.5013 9.29246Z" fill="#333333" style="fill:#333333;fill:color(display-p3 0.2000 0.2000 0.2000);fill-opacity:1;"/>
</g>
</svg>
