<svg width="161" height="132" viewBox="0 0 161 132" fill="none" xmlns="http://www.w3.org/2000/svg">
<g id="Group 1721">
<g id="Group 268">
<g id="Ellipse 10" filter="url(#filter0_dddd_3071_6802)">
<ellipse cx="30.9937" cy="30.7901" rx="30.9937" ry="30.7901" transform="matrix(1 9.1839e-09 -0.0114205 0.999935 86.4058 28.4238)" fill="white" style="fill:white;fill-opacity:1;"/>
<path d="M147.542 59.2119C147.351 75.9364 133.546 89.5 116.702 89.5C99.8576 89.5 86.3631 75.9364 86.5541 59.2119C86.7451 42.4873 100.549 28.9238 117.394 28.9238C134.238 28.9238 147.733 42.4873 147.542 59.2119Z" stroke="url(#paint0_linear_3071_6802)" style=""/>
</g>
<ellipse id="Ellipse 11" cx="30.9937" cy="30.7901" rx="30.9937" ry="30.7901" transform="matrix(-1 -9.0065e-08 0.0114206 -0.999935 147.69 89.9995)" fill="url(#paint1_radial_3071_6802)" fill-opacity="0.15" style=""/>
<path id="Union" fill-rule="evenodd" clip-rule="evenodd" d="M107.622 36.8643C110.266 42.732 114.323 51.8398 114.517 52.3294C114.679 52.7373 114.486 53.032 113.991 53.1546C113.713 53.2261 113.179 53.2287 112.939 53.1644C112.665 53.091 112.378 52.8682 112.217 52.5881C112.106 52.3942 111.709 51.2488 110.853 48.522C110.205 46.4342 109.642 44.6975 109.63 44.676C109.571 44.6237 109.571 44.6237 110.624 48.8799C111.291 51.5562 111.486 52.5018 111.458 52.6035C111.396 52.8239 111.294 52.9243 110.935 53.1561C110.33 53.5409 109.963 54.0624 109.472 55.225C108.925 56.5187 108.197 57.3444 106.427 58.602C105.39 59.3451 105.223 59.4825 104.925 59.822C104.552 60.2326 104.408 60.4855 104.203 61.0868C103.988 61.722 103.942 62.1473 103.959 62.8082C103.979 63.3967 104.067 63.8032 104.335 64.6223C104.557 65.3382 104.669 65.8603 104.621 66.0299C104.583 66.1655 104.618 66.1747 105.272 66.2042C106.84 66.2596 108.217 66.0089 109.084 65.4756C109.619 65.1449 109.788 64.935 109.959 64.3246C110.068 63.9346 110.075 63.8452 110.039 63.5803C109.972 63.1614 109.732 62.769 109.163 62.1061C108.414 61.231 108.163 60.6167 108.25 59.911C108.326 59.3115 108.538 58.949 109.351 58.0184C110.191 57.0585 110.456 56.6373 110.856 55.5412C111.106 54.8428 111.273 54.5774 111.54 54.4121C111.829 54.2343 112.041 54.2 112.591 54.2744C113.498 54.3897 114.124 54.3206 114.688 54.016C115.182 53.7654 115.453 53.4552 115.617 52.9342L115.744 52.5488L115.588 52.2517C115.04 51.1205 107.295 35.993 107.244 35.9792C107.233 35.9764 107.298 36.1229 107.398 36.35L107.398 36.35C107.462 36.4947 107.54 36.672 107.622 36.8643ZM106.121 62.3848C106.4 62.1131 106.411 61.6786 106.16 61.3926C105.921 61.1281 105.452 61.0936 105.381 61.3479C105.362 61.4157 105.377 61.4927 105.471 61.5542C105.601 61.6802 105.594 61.7696 105.422 61.924C105.25 62.0784 105.203 62.248 105.323 62.408C105.511 62.6587 105.865 62.6442 106.121 62.3848ZM116.448 46.4854C116.103 46.3381 116.091 46.3166 116.267 46.3455C116.606 46.3818 117.34 46.6515 117.838 46.9124C118.99 47.531 119.894 48.5753 120.709 50.1975L120.918 50.6362L121.382 50.6876C123.368 50.8917 125.253 51.6521 126.671 52.834C127.059 53.1568 127.647 53.7518 127.704 53.8765C127.729 53.9196 127.719 54.1538 127.691 54.3834C127.588 55.2125 127.37 55.7922 126.985 56.1812C126.776 56.3988 126.757 56.4667 126.781 56.71C126.802 56.8979 126.975 57.0717 127.163 57.1222C127.574 57.2323 128.182 56.7026 128.64 55.859L128.825 55.5258L128.932 55.7367C129.534 56.9372 129.844 58.4603 129.68 59.4374L129.643 59.7009L129.551 59.4392C129.403 58.9803 129.235 58.6618 128.971 58.3542C128.498 57.8082 127.915 57.5243 126.312 57.0037C124.864 56.5244 124.058 56.1808 123.312 55.6893C122.036 54.8553 121.484 54.0691 120.436 51.4367C119.97 50.2729 119.655 49.6234 119.317 49.0587C118.577 47.8215 117.71 47.0421 116.448 46.4854ZM128.604 52.0559C128.819 51.4207 129.023 51.0197 129.321 50.6802C129.432 50.546 129.538 50.4287 129.555 50.4332C129.573 50.4378 129.505 50.5474 129.416 50.6692C129.174 51.0056 129.01 51.5266 128.929 52.1431C128.835 52.9382 128.858 53.0537 129.447 54.1048C129.714 54.5957 130.022 55.2067 130.136 55.4561L130.322 55.9071L130.107 55.5578C129.843 55.1224 129.202 54.2578 129.037 54.1226C128.936 54.0226 128.919 54.018 128.81 54.0799C128.722 54.1293 128.677 54.2265 128.539 54.7182C128.308 55.4767 128.072 55.9239 127.677 56.3469C127.469 56.5645 127.466 56.509 127.667 56.2529C127.814 56.0554 127.86 55.9583 128.064 55.2291C128.478 53.7539 128.406 53.352 127.528 52.4786C127.314 52.2572 126.931 51.9175 126.707 51.73C126.466 51.5379 126.289 51.3811 126.306 51.3857C126.35 51.3609 127.28 51.9199 127.626 52.1949C128.159 52.5929 128.257 52.6374 128.33 52.6388C128.396 52.6017 128.468 52.4752 128.604 52.0559ZM115.782 47.4185C115.361 48.5271 115.396 50.177 115.84 51.3532C116.191 52.2676 116.898 53.0951 117.529 53.3372C117.948 53.4858 118.106 53.3823 117.993 53.0605C117.824 52.6141 117.665 51.9334 117.651 51.6561C117.642 51.4898 117.655 50.9829 117.684 50.553C117.782 49.0846 117.631 48.4424 117.06 47.852C116.846 47.6305 116.372 47.2848 116.078 47.1514L115.917 47.0716L115.782 47.4185ZM124.955 61.7247C121.945 59.4598 121.074 57.9686 121.63 55.9847C121.711 55.6964 121.794 55.4636 121.794 55.4636C121.806 55.4667 121.85 55.5272 121.914 55.6146L121.914 55.6147L121.914 55.6148L121.915 55.6148C121.947 55.6585 121.984 55.7088 122.024 55.7621C122.557 56.4882 123.261 56.932 125.315 57.8107C126.513 58.3322 127.194 58.6605 127.783 59.0553C129.665 60.2887 130.559 62.0232 130.34 63.9879C130.273 64.5535 129.932 65.5741 129.643 66.08C129.405 66.4718 128.844 67.16 128.753 67.154C128.736 67.1494 128.726 67.0555 128.764 66.9198C128.929 66.1985 128.759 65.4239 128.307 64.7376C127.759 63.9345 126.963 63.2289 124.955 61.7247ZM122.428 60.884C122.442 61.0334 122.437 61.3785 122.4 61.642C122.227 63.3094 121.023 64.3902 119.18 64.4616C118.99 64.4836 118.267 64.4357 117.571 64.3585C116.152 64.2335 115.492 64.2209 114.812 64.3486C114.327 64.4374 113.711 64.6004 113.736 64.6435C113.748 64.665 113.86 64.6586 113.973 64.6523L113.973 64.6523C114.819 64.5874 115.713 64.6812 117.016 64.9574C117.454 65.0443 117.944 65.1321 118.215 65.1807L118.346 65.2044C119.536 65.3591 120.436 65.2356 121.228 64.7734C121.67 64.5091 121.966 64.242 122.266 63.83C122.449 63.5693 122.499 63.4552 122.642 62.9465C122.789 62.4208 122.818 62.3191 122.788 61.9648C122.753 61.4996 122.667 61.1485 122.516 60.8345L122.414 60.6067L122.428 60.884ZM123.193 64.7896C123.019 63.7038 123.173 62.7606 123.655 61.9601C123.713 61.8845 123.771 61.8089 123.805 61.818C123.839 61.8272 123.928 61.9056 124.011 62.001C124.179 62.1917 124.54 62.5438 125.47 63.4309C126.648 64.5485 127.274 65.3361 127.636 66.1442C127.954 66.8492 128.06 67.5885 127.969 68.4391C127.926 68.9199 127.566 70.0083 127.318 70.434C126.537 71.7743 125.358 72.698 123.923 73.0244C123.706 73.0756 123.533 73.1022 123.516 73.0976C123.499 73.093 123.615 72.9418 123.774 72.7658C124.428 72.0112 124.712 71.1941 124.665 70.1789C124.638 69.5519 124.439 68.7512 123.979 67.3701C123.418 65.7613 123.295 65.3456 123.193 64.7896ZM113.817 65.6672C112.312 65.5192 110.545 65.8478 108.983 66.5596L108.529 66.8024L108.84 66.9404C110.481 67.6536 110.877 68.0148 111.733 69.5568C112.223 70.4356 112.42 70.6524 112.942 70.9564C113.72 71.4016 114.651 71.2319 115.151 70.5638C115.366 70.2568 115.501 69.7096 115.44 69.4016C115.283 68.6485 114.329 68.1743 113.717 68.5207C113.214 68.8051 113.163 69.4477 113.631 69.6825C113.729 69.727 113.729 69.727 113.611 69.6224C113.417 69.461 113.352 69.2979 113.414 69.0774C113.544 68.5472 114.219 68.4365 114.701 68.8207C115.059 69.1173 115.147 69.396 115.033 69.8029C114.857 70.4303 114.171 70.7752 113.561 70.5207C113.233 70.3781 112.879 70.0645 112.728 69.7505C112.351 68.9933 112.837 68.0479 113.729 67.8859C114.409 67.7582 115.173 68.054 115.68 68.6092C116.254 69.2551 116.448 69.7447 116.662 71.2787C116.74 71.7916 116.842 72.3475 116.914 72.5492C117.241 73.5484 117.825 74.1605 118.646 74.3807C119.109 74.5045 119.47 74.5285 119.96 74.4227C120.311 74.3527 120.859 74.1714 120.834 74.1283C120.838 74.1149 120.745 74.1209 120.623 74.1287L120.572 74.1319L120.519 74.1351C119.517 74.231 118.597 73.9663 118.175 73.4341C117.904 73.088 117.763 72.5398 117.797 71.8927C117.8 71.8723 117.803 71.8376 117.808 71.7914L117.808 71.7913L117.808 71.7906C117.827 71.5954 117.868 71.1969 117.916 70.8125C118.055 69.592 118.014 69.0159 117.775 68.2954C117.522 67.5533 116.843 66.8244 116.002 66.3438C115.48 66.0398 114.462 65.7306 113.817 65.6672ZM114.352 56.0761C114.595 55.6674 115.113 55.332 115.557 55.3234C115.854 55.3121 116.371 55.5052 116.59 55.7096C117.015 56.097 117.218 56.7529 117.018 57.1369C116.795 57.6057 115.876 57.7971 114.934 57.5447C114.455 57.4163 114.303 57.3026 114.181 57.0147C114.104 56.83 114.207 56.3291 114.352 56.0761ZM116.405 55.8425C116.619 56.0639 116.609 56.2981 116.415 56.4649C116.274 56.573 115.928 56.6261 115.705 56.5664C115.363 56.4747 115.07 56.1409 115.132 55.9205C115.255 55.4796 116.024 55.4304 116.405 55.8425Z" fill="url(#paint2_radial_3071_6802)" style=""/>
</g>
<g id="Group 267">
<g id="Ellipse 10_2" filter="url(#filter1_dddd_3071_6802)">
<ellipse cx="43.0951" cy="59.1106" rx="31.0951" ry="30.6877" fill="white" style="fill:white;fill-opacity:1;"/>
<path d="M73.6902 59.1106C73.6902 75.7766 59.9985 89.2983 43.0951 89.2983C26.1916 89.2983 12.5 75.7766 12.5 59.1106C12.5 42.4445 26.1916 28.9229 43.0951 28.9229C59.9985 28.9229 73.6902 42.4445 73.6902 59.1106Z" stroke="url(#paint3_linear_3071_6802)" style=""/>
</g>
<ellipse id="Ellipse 11_2" cx="43.0953" cy="59.1111" rx="31.0951" ry="30.6877" transform="rotate(-180 43.0953 59.1111)" fill="url(#paint4_radial_3071_6802)" fill-opacity="0.15" style=""/>
<path id="Vector" d="M49.8753 54.6997C49.6152 54.5534 49.3211 54.4765 49.0218 54.4765C48.7225 54.4765 48.4283 54.5534 48.1682 54.6997L44.2528 56.9793L41.5915 58.4652L37.6761 60.7448C37.416 60.8909 37.1219 60.9678 36.8226 60.9678C36.5233 60.9678 36.2292 60.8909 35.9691 60.7448L32.858 58.9615C32.6032 58.8138 32.391 58.6043 32.2414 58.3529C32.0919 58.1015 32.0101 57.8164 32.0037 57.5249V54.0061C32.0037 53.4127 32.3051 52.8671 32.858 52.5711L35.9191 50.8371C36.1792 50.691 36.4733 50.6141 36.7726 50.6141C37.0719 50.6141 37.366 50.691 37.6261 50.8371L40.6888 52.5711C41.1902 52.8671 41.5416 53.4127 41.5416 54.0061V56.2857L44.2028 54.7505V52.4709C44.2028 51.876 43.9014 51.3319 43.3486 51.0344L37.6761 47.7637C37.4161 47.6174 37.1219 47.5405 36.8226 47.5405C36.5233 47.5405 36.2291 47.6174 35.9691 47.7637L30.1967 51.0344C29.9353 51.1739 29.7176 51.3814 29.5673 51.6344C29.4169 51.8874 29.3397 52.1762 29.3439 52.4694V59.0601C29.3439 59.6551 29.6438 60.1992 30.1967 60.4967L35.9691 63.7673C36.472 64.0633 37.1248 64.0633 37.6761 63.7673L41.5915 61.5371L44.2528 60.0019L48.1682 57.7716C48.4283 57.6255 48.7225 57.5486 49.0218 57.5486C49.3211 57.5486 49.6152 57.6255 49.8753 57.7716L52.9379 59.5056C53.4393 59.8046 53.7907 60.3487 53.7907 60.9421V64.4609C53.7907 65.0544 53.4893 65.6 52.9379 65.896L49.8753 67.6808C49.6152 67.8271 49.3211 67.904 49.0218 67.904C48.7225 67.904 48.4283 67.8271 48.1682 67.6808L45.1056 65.9468C44.8511 65.799 44.6392 65.5894 44.4899 65.338C44.3407 65.0865 44.259 64.8016 44.2528 64.5103V62.2307L41.5915 63.7658V66.0455C41.5915 66.6404 41.8945 67.1845 42.4458 67.482L48.2182 70.7527C48.7211 71.0486 49.3739 71.0486 49.9253 70.7527L55.6992 67.482C56.2006 67.1845 56.552 66.6404 56.552 66.0469V59.4563C56.552 58.8613 56.2505 58.3172 55.6992 58.0197L49.8753 54.7012V54.6997Z" fill="url(#paint5_radial_3071_6802)" style=""/>
</g>
<g id="Group 266">
<g id="Ellipse 10_3" filter="url(#filter2_dddd_3071_6802)">
<ellipse cx="80.0633" cy="32.6877" rx="31.0951" ry="30.6877" fill="white" style="fill:white;fill-opacity:1;"/>
<path d="M110.658 32.6877C110.658 49.3537 96.9668 62.8754 80.0633 62.8754C63.1599 62.8754 49.4683 49.3537 49.4683 32.6877C49.4683 16.0217 63.1599 2.5 80.0633 2.5C96.9668 2.5 110.658 16.0217 110.658 32.6877Z" stroke="url(#paint6_linear_3071_6802)" style=""/>
</g>
<ellipse id="Ellipse 11_3" cx="80.0636" cy="32.6878" rx="31.0951" ry="30.6877" transform="rotate(-180 80.0636 32.6878)" fill="url(#paint7_radial_3071_6802)" fill-opacity="0.15" style=""/>
<g id="Union_2">
<path d="M69.745 32.2228C69.6935 32.3027 69.6773 32.4002 69.7 32.4925C69.7228 32.5847 69.7827 32.6635 69.8655 32.7102L79.8997 38.3687C80.0049 38.428 80.1334 38.428 80.2386 38.3687L90.2724 32.7101C90.3551 32.6634 90.415 32.5847 90.4378 32.4924C90.4606 32.4002 90.4443 32.3026 90.3928 32.2228L80.3586 16.6619C80.2951 16.5634 80.1859 16.5039 80.0687 16.5039C79.9515 16.5039 79.8424 16.5634 79.7789 16.6619L69.745 32.2228Z" fill="url(#paint8_radial_3071_6802)" style=""/>
<path d="M70.2043 34.2313C70.0623 34.1512 69.8836 34.1815 69.7759 34.3039C69.6682 34.4263 69.6609 34.6074 69.7585 34.7381L79.7924 48.1771C79.8575 48.2643 79.9599 48.3157 80.0687 48.3157C80.1776 48.3157 80.28 48.2643 80.3451 48.1771L90.379 34.7381C90.4765 34.6074 90.4693 34.4263 90.3616 34.3039C90.2539 34.1815 90.0752 34.1512 89.9332 34.2313L80.0687 39.7943L70.2043 34.2313Z" fill="url(#paint9_radial_3071_6802)" style=""/>
</g>
</g>
</g>
<defs>
<filter id="filter0_dddd_3071_6802" x="74.0522" y="26.4238" width="85.9912" height="105.576" filterUnits="userSpaceOnUse" color-interpolation-filters="sRGB">
<feFlood flood-opacity="0" result="BackgroundImageFix"/>
<feColorMatrix in="SourceAlpha" type="matrix" values="0 0 0 0 0 0 0 0 0 0 0 0 0 0 0 0 0 0 127 0" result="hardAlpha"/>
<feOffset dy="2"/>
<feGaussianBlur stdDeviation="2"/>
<feColorMatrix type="matrix" values="0 0 0 0 0.117647 0 0 0 0 0.160784 0 0 0 0 0.231373 0 0 0 0.08 0"/>
<feBlend mode="normal" in2="BackgroundImageFix" result="effect1_dropShadow_3071_6802"/>
<feColorMatrix in="SourceAlpha" type="matrix" values="0 0 0 0 0 0 0 0 0 0 0 0 0 0 0 0 0 0 127 0" result="hardAlpha"/>
<feOffset dy="8"/>
<feGaussianBlur stdDeviation="4"/>
<feColorMatrix type="matrix" values="0 0 0 0 0.117647 0 0 0 0 0.160784 0 0 0 0 0.231373 0 0 0 0.07 0"/>
<feBlend mode="normal" in2="effect1_dropShadow_3071_6802" result="effect2_dropShadow_3071_6802"/>
<feColorMatrix in="SourceAlpha" type="matrix" values="0 0 0 0 0 0 0 0 0 0 0 0 0 0 0 0 0 0 127 0" result="hardAlpha"/>
<feOffset dy="17"/>
<feGaussianBlur stdDeviation="5"/>
<feColorMatrix type="matrix" values="0 0 0 0 0.117647 0 0 0 0 0.160784 0 0 0 0 0.231373 0 0 0 0.04 0"/>
<feBlend mode="normal" in2="effect2_dropShadow_3071_6802" result="effect3_dropShadow_3071_6802"/>
<feColorMatrix in="SourceAlpha" type="matrix" values="0 0 0 0 0 0 0 0 0 0 0 0 0 0 0 0 0 0 127 0" result="hardAlpha"/>
<feOffset dy="30"/>
<feGaussianBlur stdDeviation="6"/>
<feColorMatrix type="matrix" values="0 0 0 0 0.117647 0 0 0 0 0.160784 0 0 0 0 0.231373 0 0 0 0.01 0"/>
<feBlend mode="normal" in2="effect3_dropShadow_3071_6802" result="effect4_dropShadow_3071_6802"/>
<feBlend mode="normal" in="SourceGraphic" in2="effect4_dropShadow_3071_6802" result="shape"/>
</filter>
<filter id="filter1_dddd_3071_6802" x="0" y="26.4229" width="86.1899" height="105.375" filterUnits="userSpaceOnUse" color-interpolation-filters="sRGB">
<feFlood flood-opacity="0" result="BackgroundImageFix"/>
<feColorMatrix in="SourceAlpha" type="matrix" values="0 0 0 0 0 0 0 0 0 0 0 0 0 0 0 0 0 0 127 0" result="hardAlpha"/>
<feOffset dy="2"/>
<feGaussianBlur stdDeviation="2"/>
<feColorMatrix type="matrix" values="0 0 0 0 0.117647 0 0 0 0 0.160784 0 0 0 0 0.231373 0 0 0 0.08 0"/>
<feBlend mode="normal" in2="BackgroundImageFix" result="effect1_dropShadow_3071_6802"/>
<feColorMatrix in="SourceAlpha" type="matrix" values="0 0 0 0 0 0 0 0 0 0 0 0 0 0 0 0 0 0 127 0" result="hardAlpha"/>
<feOffset dy="8"/>
<feGaussianBlur stdDeviation="4"/>
<feColorMatrix type="matrix" values="0 0 0 0 0.117647 0 0 0 0 0.160784 0 0 0 0 0.231373 0 0 0 0.07 0"/>
<feBlend mode="normal" in2="effect1_dropShadow_3071_6802" result="effect2_dropShadow_3071_6802"/>
<feColorMatrix in="SourceAlpha" type="matrix" values="0 0 0 0 0 0 0 0 0 0 0 0 0 0 0 0 0 0 127 0" result="hardAlpha"/>
<feOffset dy="17"/>
<feGaussianBlur stdDeviation="5"/>
<feColorMatrix type="matrix" values="0 0 0 0 0.117647 0 0 0 0 0.160784 0 0 0 0 0.231373 0 0 0 0.04 0"/>
<feBlend mode="normal" in2="effect2_dropShadow_3071_6802" result="effect3_dropShadow_3071_6802"/>
<feColorMatrix in="SourceAlpha" type="matrix" values="0 0 0 0 0 0 0 0 0 0 0 0 0 0 0 0 0 0 127 0" result="hardAlpha"/>
<feOffset dy="30"/>
<feGaussianBlur stdDeviation="6"/>
<feColorMatrix type="matrix" values="0 0 0 0 0.117647 0 0 0 0 0.160784 0 0 0 0 0.231373 0 0 0 0.01 0"/>
<feBlend mode="normal" in2="effect3_dropShadow_3071_6802" result="effect4_dropShadow_3071_6802"/>
<feBlend mode="normal" in="SourceGraphic" in2="effect4_dropShadow_3071_6802" result="shape"/>
</filter>
<filter id="filter2_dddd_3071_6802" x="36.9683" y="0" width="86.1899" height="105.375" filterUnits="userSpaceOnUse" color-interpolation-filters="sRGB">
<feFlood flood-opacity="0" result="BackgroundImageFix"/>
<feColorMatrix in="SourceAlpha" type="matrix" values="0 0 0 0 0 0 0 0 0 0 0 0 0 0 0 0 0 0 127 0" result="hardAlpha"/>
<feOffset dy="2"/>
<feGaussianBlur stdDeviation="2"/>
<feColorMatrix type="matrix" values="0 0 0 0 0.117647 0 0 0 0 0.160784 0 0 0 0 0.231373 0 0 0 0.08 0"/>
<feBlend mode="normal" in2="BackgroundImageFix" result="effect1_dropShadow_3071_6802"/>
<feColorMatrix in="SourceAlpha" type="matrix" values="0 0 0 0 0 0 0 0 0 0 0 0 0 0 0 0 0 0 127 0" result="hardAlpha"/>
<feOffset dy="8"/>
<feGaussianBlur stdDeviation="4"/>
<feColorMatrix type="matrix" values="0 0 0 0 0.117647 0 0 0 0 0.160784 0 0 0 0 0.231373 0 0 0 0.07 0"/>
<feBlend mode="normal" in2="effect1_dropShadow_3071_6802" result="effect2_dropShadow_3071_6802"/>
<feColorMatrix in="SourceAlpha" type="matrix" values="0 0 0 0 0 0 0 0 0 0 0 0 0 0 0 0 0 0 127 0" result="hardAlpha"/>
<feOffset dy="17"/>
<feGaussianBlur stdDeviation="5"/>
<feColorMatrix type="matrix" values="0 0 0 0 0.117647 0 0 0 0 0.160784 0 0 0 0 0.231373 0 0 0 0.04 0"/>
<feBlend mode="normal" in2="effect2_dropShadow_3071_6802" result="effect3_dropShadow_3071_6802"/>
<feColorMatrix in="SourceAlpha" type="matrix" values="0 0 0 0 0 0 0 0 0 0 0 0 0 0 0 0 0 0 127 0" result="hardAlpha"/>
<feOffset dy="30"/>
<feGaussianBlur stdDeviation="6"/>
<feColorMatrix type="matrix" values="0 0 0 0 0.117647 0 0 0 0 0.160784 0 0 0 0 0.231373 0 0 0 0.01 0"/>
<feBlend mode="normal" in2="effect3_dropShadow_3071_6802" result="effect4_dropShadow_3071_6802"/>
<feBlend mode="normal" in="SourceGraphic" in2="effect4_dropShadow_3071_6802" result="shape"/>
</filter>
<linearGradient id="paint0_linear_3071_6802" x1="117.4" y1="28.4238" x2="117.4" y2="89.9999" gradientUnits="userSpaceOnUse">
<stop stop-color="#475569" stop-opacity="0" style="stop-color:none;stop-opacity:0;"/>
<stop offset="1" stop-color="#475569" stop-opacity="0.06" style="stop-color:#475569;stop-color:color(display-p3 0.2784 0.3333 0.4118);stop-opacity:0.06;"/>
</linearGradient>
<radialGradient id="paint1_radial_3071_6802" cx="0" cy="0" r="1" gradientUnits="userSpaceOnUse" gradientTransform="translate(30.9937 30.7901) rotate(90) scale(30.7901 30.9937)">
<stop offset="0.4486" stop-color="#334155" stop-opacity="0" style="stop-color:none;stop-opacity:0;"/>
<stop offset="0.957946" stop-color="#334155" stop-opacity="0.15" style="stop-color:#334155;stop-color:color(display-p3 0.2000 0.2549 0.3333);stop-opacity:0.15;"/>
</radialGradient>
<radialGradient id="paint2_radial_3071_6802" cx="0" cy="0" r="1" gradientUnits="userSpaceOnUse" gradientTransform="translate(117.05 56.2797) rotate(-74.3456) scale(17.072 14.9205)">
<stop stop-color="#64748B" style="stop-color:#64748B;stop-color:color(display-p3 0.3922 0.4549 0.5451);stop-opacity:1;"/>
<stop offset="1" stop-color="#494949" style="stop-color:#494949;stop-color:color(display-p3 0.2854 0.2854 0.2854);stop-opacity:1;"/>
</radialGradient>
<linearGradient id="paint3_linear_3071_6802" x1="43.0951" y1="28.4229" x2="43.0951" y2="89.7983" gradientUnits="userSpaceOnUse">
<stop stop-color="#475569" stop-opacity="0" style="stop-color:none;stop-opacity:0;"/>
<stop offset="1" stop-color="#475569" stop-opacity="0.06" style="stop-color:#475569;stop-color:color(display-p3 0.2784 0.3333 0.4118);stop-opacity:0.06;"/>
</linearGradient>
<radialGradient id="paint4_radial_3071_6802" cx="0" cy="0" r="1" gradientUnits="userSpaceOnUse" gradientTransform="translate(43.0953 59.1111) rotate(90) scale(30.6877 31.0951)">
<stop offset="0.4486" stop-color="#334155" stop-opacity="0" style="stop-color:none;stop-opacity:0;"/>
<stop offset="0.957946" stop-color="#334155" stop-opacity="0.15" style="stop-color:#334155;stop-color:color(display-p3 0.2000 0.2549 0.3333);stop-opacity:0.15;"/>
</radialGradient>
<radialGradient id="paint5_radial_3071_6802" cx="0" cy="0" r="1" gradientUnits="userSpaceOnUse" gradientTransform="translate(42.9479 59.2576) rotate(-90) scale(11.7171 13.6041)">
<stop stop-color="#64748B" style="stop-color:#64748B;stop-color:color(display-p3 0.3922 0.4549 0.5451);stop-opacity:1;"/>
<stop offset="1" stop-color="#494949" style="stop-color:#494949;stop-color:color(display-p3 0.2854 0.2854 0.2854);stop-opacity:1;"/>
</radialGradient>
<linearGradient id="paint6_linear_3071_6802" x1="80.0633" y1="2" x2="80.0633" y2="63.3754" gradientUnits="userSpaceOnUse">
<stop stop-color="#475569" stop-opacity="0" style="stop-color:none;stop-opacity:0;"/>
<stop offset="1" stop-color="#475569" stop-opacity="0.06" style="stop-color:#475569;stop-color:color(display-p3 0.2784 0.3333 0.4118);stop-opacity:0.06;"/>
</linearGradient>
<radialGradient id="paint7_radial_3071_6802" cx="0" cy="0" r="1" gradientUnits="userSpaceOnUse" gradientTransform="translate(80.0636 32.6878) rotate(90) scale(30.6877 31.0951)">
<stop offset="0.4486" stop-color="#334155" stop-opacity="0" style="stop-color:none;stop-opacity:0;"/>
<stop offset="0.957946" stop-color="#334155" stop-opacity="0.15" style="stop-color:#334155;stop-color:color(display-p3 0.2000 0.2549 0.3333);stop-opacity:0.15;"/>
</radialGradient>
<radialGradient id="paint8_radial_3071_6802" cx="0" cy="0" r="1" gradientUnits="userSpaceOnUse" gradientTransform="translate(80.0689 32.4098) rotate(-90) scale(15.9059 10.379)">
<stop stop-color="#64748B" style="stop-color:#64748B;stop-color:color(display-p3 0.3922 0.4549 0.5451);stop-opacity:1;"/>
<stop offset="1" stop-color="#494949" style="stop-color:#494949;stop-color:color(display-p3 0.2854 0.2854 0.2854);stop-opacity:1;"/>
</radialGradient>
<radialGradient id="paint9_radial_3071_6802" cx="0" cy="0" r="1" gradientUnits="userSpaceOnUse" gradientTransform="translate(80.0689 32.4098) rotate(-90) scale(15.9059 10.379)">
<stop stop-color="#64748B" style="stop-color:#64748B;stop-color:color(display-p3 0.3922 0.4549 0.5451);stop-opacity:1;"/>
<stop offset="1" stop-color="#494949" style="stop-color:#494949;stop-color:color(display-p3 0.2854 0.2854 0.2854);stop-opacity:1;"/>
</radialGradient>
</defs>
</svg>
