<svg width="20" height="20" viewBox="0 0 20 20" fill="none" xmlns="http://www.w3.org/2000/svg">
<g id="wallet-1">
<path id="Icon" d="M2.29199 6.4585V5.62516C2.29199 4.70469 3.03818 3.9585 3.95866 3.9585H16.042C16.9625 3.9585 17.7087 4.70469 17.7087 5.62516V6.4585M2.29199 6.4585H17.7087M2.29199 6.4585V8.9585M17.7087 6.4585V8.9585M17.7087 8.9585V14.3752C17.7087 15.2956 16.9625 16.0418 16.042 16.0418H3.95866C3.03818 16.0418 2.29199 15.2956 2.29199 14.3752V8.9585M17.7087 8.9585H12.7087V9.37516C12.7087 10.2956 11.9625 11.0418 11.042 11.0418H8.95866C8.03818 11.0418 7.29199 10.2956 7.29199 9.37516V8.9585H2.29199" stroke="#333333" style="stroke:#333333;stroke:color(display-p3 0.2000 0.2000 0.2000);stroke-opacity:1;" stroke-width="1.75" stroke-linejoin="round"/>
</g>
</svg>
