<svg width="20" height="20" viewBox="0 0 20 20" fill="none" xmlns="http://www.w3.org/2000/svg">
<g id="Frame">
<g id="Clip path group">
<mask id="mask0_1841_42141" style="mask-type:luminance" maskUnits="userSpaceOnUse" x="1" y="1" width="18" height="18">
<g id="clip0_8731_3695">
<path id="Vector" d="M18.3337 1.66699H1.66699V18.3337H18.3337V1.66699Z" fill="white" style="fill:white;fill:white;fill-opacity:1;"/>
</g>
</mask>
<g mask="url(#mask0_1841_42141)">
<g id="Group">
<path id="Vector_2" d="M18.1559 10.1877C18.1559 9.63916 18.1073 9.11833 18.024 8.61133H10.1768V11.7433H14.6698C14.4684 12.7711 13.8782 13.6392 13.0032 14.2294V16.3127H15.6837C17.2532 14.8613 18.1559 12.7225 18.1559 10.1877Z" fill="#4285F4" style="fill:#4285F4;fill:color(display-p3 0.2588 0.5216 0.9569);fill-opacity:1;"/>
<path id="Vector_3" d="M10.1768 18.3339C12.4268 18.3339 14.3087 17.5839 15.6837 16.3131L13.0031 14.2297C12.2531 14.7297 11.3018 15.0353 10.1768 15.0353C8.00315 15.0353 6.16287 13.57 5.50315 11.5908H2.73926V13.7367C4.10732 16.4589 6.91982 18.3339 10.1768 18.3339Z" fill="#34A853" style="fill:#34A853;fill:color(display-p3 0.2039 0.6588 0.3255);fill-opacity:1;"/>
<path id="Vector_4" d="M5.50348 11.591C5.32987 11.091 5.23958 10.5563 5.23958 10.0008C5.23958 9.44518 5.33681 8.91051 5.50348 8.41051V6.26465H2.73958C2.17014 7.38965 1.84375 8.65351 1.84375 10.0008C1.84375 11.348 2.17014 12.6118 2.73958 13.7368L5.50348 11.591Z" fill="#FBBC05" style="fill:#FBBC05;fill:color(display-p3 0.9843 0.7373 0.0196);fill-opacity:1;"/>
<path id="Vector_5" d="M10.1768 4.9656C11.406 4.9656 12.5031 5.38922 13.3712 6.21561L15.7462 3.8406C14.3087 2.49338 12.4268 1.66699 10.1768 1.66699C6.91982 1.66699 4.10732 3.54199 2.73926 6.26422L5.50315 8.41008C6.16287 6.43088 8.00315 4.9656 10.1768 4.9656Z" fill="#EA4335" style="fill:#EA4335;fill:color(display-p3 0.9176 0.2627 0.2078);fill-opacity:1;"/>
</g>
</g>
</g>
</g>
</svg>
