<svg width="16" height="16" viewBox="0 0 16 16" fill="none" xmlns="http://www.w3.org/2000/svg">
<g id="icon-optimism-outline">
<g id="Vector">
<path d="M8 16C12.4183 16 16 12.4183 16 8C16 3.58172 12.4183 0 8 0C3.58172 0 0 3.58172 0 8C0 12.4183 3.58172 16 8 16Z" fill="#FF0420" style="fill:#FF0420;fill:color(display-p3 1.0000 0.0157 0.1255);fill-opacity:1;"/>
<path d="M5.66711 10.1248C5.19031 10.1248 4.7999 10.0128 4.4959 9.78879C4.1951 9.56159 4.0447 9.2352 4.0447 8.816C4.0447 8.7264 4.05431 8.6208 4.0735 8.49279C4.1247 8.20479 4.1983 7.8592 4.2943 7.4528C4.5663 6.35199 5.27031 5.8016 6.40311 5.8016C6.71031 5.8016 6.9887 5.85279 7.2319 5.9584C7.4751 6.05759 7.6671 6.21119 7.8079 6.416C7.9487 6.61759 8.0191 6.85759 8.0191 7.13599C8.0191 7.21919 8.00951 7.3248 7.9903 7.4528C7.9295 7.808 7.8591 8.1568 7.7727 8.49279C7.6319 9.04 7.3919 9.4528 7.0463 9.7248C6.7039 9.9936 6.2431 10.1248 5.66711 10.1248ZM5.7535 9.26079C5.9775 9.26079 6.16631 9.1936 6.3231 9.0624C6.4831 8.9312 6.5983 8.7296 6.6655 8.4544C6.75831 8.0768 6.8287 7.75039 6.8767 7.46879C6.8927 7.38559 6.9023 7.29919 6.9023 7.20959C6.9023 6.84479 6.7135 6.6624 6.3327 6.6624C6.1087 6.6624 5.9167 6.7296 5.7567 6.8608C5.5999 6.99199 5.4879 7.19359 5.4207 7.46879C5.3471 7.7376 5.27671 8.064 5.2031 8.4544C5.18711 8.5344 5.17751 8.6176 5.17751 8.7072C5.1743 9.0784 5.3695 9.26079 5.7535 9.26079Z" fill="white" style="fill:white;fill-opacity:1;"/>
<path d="M8.29761 10.0672C8.25281 10.0672 8.22081 10.0544 8.19521 10.0256C8.17601 9.99361 8.16961 9.95841 8.17601 9.91681L9.00481 6.01281C9.01121 5.96801 9.03361 5.93281 9.07201 5.90401C9.10721 5.87521 9.14561 5.86241 9.18721 5.86241H10.784C11.2288 5.86241 11.584 5.95521 11.8528 6.13761C12.1248 6.32321 12.2624 6.58881 12.2624 6.93761C12.2624 7.03681 12.2496 7.14241 12.2272 7.25121C12.128 7.71201 11.9264 8.05121 11.6192 8.27201C11.3184 8.49281 10.9056 8.60161 10.3808 8.60161H9.57121L9.29601 9.91681C9.28641 9.96161 9.26721 9.99681 9.22881 10.0256C9.19361 10.0544 9.15521 10.0672 9.11361 10.0672H8.29761ZM10.4224 7.77281C10.592 7.77281 10.736 7.72801 10.8608 7.63521C10.9888 7.54241 11.072 7.41121 11.1136 7.23841C11.1264 7.17121 11.1328 7.11041 11.1328 7.05921C11.1328 6.94401 11.0976 6.85441 11.0304 6.79361C10.9632 6.72961 10.8448 6.69761 10.6816 6.69761H9.96161L9.73441 7.77281H10.4224Z" fill="white" style="fill:white;fill-opacity:1;"/>
</g>
</g>
</svg>
