<svg width="33" height="32" viewBox="0 0 33 32" fill="none" xmlns="http://www.w3.org/2000/svg">
<g id="wallet-2">
<path id="Icon" d="M28.5 14.6665V22.3332C28.5 23.99 27.1569 25.3332 25.5 25.3332H7.5C5.84315 25.3332 4.5 23.99 4.5 22.3332V14.6665M28.5 14.6665H24.5M28.5 14.6665V9.6665C28.5 8.00965 27.1569 6.6665 25.5 6.6665H7.5C5.84315 6.6665 4.5 8.00965 4.5 9.6665V14.6665M4.5 14.6665H8.5M8.5 14.6665H9.92403C10.7197 14.6665 11.4827 14.9826 12.0453 15.5452L12.9547 16.4545C13.5173 17.0171 14.2803 17.3332 15.076 17.3332H17.924C18.7197 17.3332 19.4827 17.0171 20.0453 16.4545L20.9547 15.5452C21.5173 14.9826 22.2803 14.6665 23.076 14.6665H24.5M8.5 14.6665V11.1665C8.5 10.8904 8.72386 10.6665 9 10.6665H24C24.2761 10.6665 24.5 10.8904 24.5 11.1665V14.6665" stroke="#98979C" style="stroke:#98979C;stroke:color(display-p3 0.5961 0.5922 0.6118);stroke-opacity:1;" stroke-width="2.5"/>
</g>
</svg>
