<svg width="28" height="28" viewBox="0 0 28 28" fill="none" xmlns="http://www.w3.org/2000/svg">
<g clip-path="url(#clip0_1691_30237)">
<rect x="14.8232" y="14.8237" width="13.1765" height="13.1765" rx="4" fill="#AB9FF2" style="fill:#AB9FF2;fill:color(display-p3 0.6706 0.6235 0.9490);fill-opacity:1;"/>
<path d="M18.2684 24.7059C19.3193 24.7059 20.1091 23.8279 20.5804 23.1341C20.5231 23.2876 20.4912 23.4411 20.4912 23.5884C20.4912 23.9937 20.7333 24.2822 21.211 24.2822C21.867 24.2822 22.5676 23.7297 22.9306 23.1341C22.9052 23.22 22.8924 23.2999 22.8924 23.3735C22.8924 23.656 23.058 23.834 23.3956 23.834C24.4592 23.834 25.5292 22.0227 25.5292 20.4386C25.5292 19.2045 24.8796 18.1177 23.2491 18.1177C20.383 18.1177 17.2939 21.4824 17.2939 23.656C17.2939 24.5094 17.7716 24.7059 18.2684 24.7059ZM22.2619 20.3035C22.2619 19.9965 22.4402 19.7816 22.7013 19.7816C22.9561 19.7816 23.1344 19.9965 23.1344 20.3035C23.1344 20.6105 22.9561 20.8316 22.7013 20.8316C22.4402 20.8316 22.2619 20.6105 22.2619 20.3035ZM23.6249 20.3035C23.6249 19.9965 23.8032 19.7816 24.0643 19.7816C24.3191 19.7816 24.4974 19.9965 24.4974 20.3035C24.4974 20.6105 24.3191 20.8316 24.0643 20.8316C23.8032 20.8316 23.6249 20.6105 23.6249 20.3035Z" fill="white" style="fill:white;fill-opacity:1;"/>
<g filter="url(#filter0_i_1691_30237)">
<rect y="14.8237" width="13.1765" height="13.1765" rx="4" fill="#191919" style="fill:#191919;fill:color(display-p3 0.0980 0.0980 0.0980);fill-opacity:1;"/>
<path d="M9.88144 19.2272C9.88135 18.9351 9.76534 18.6551 9.55882 18.4486C9.35231 18.2421 9.07222 18.126 8.7802 18.1259C8.24604 18.1205 7.80481 18.5022 7.69532 19.0036H7.66807C7.61729 18.7553 7.48249 18.5322 7.28635 18.3717C7.09022 18.2112 6.84476 18.1232 6.59133 18.1226C6.3379 18.1219 6.092 18.2087 5.89507 18.3682C5.69813 18.5277 5.56219 18.7502 5.51015 18.9982H5.4829C5.44238 18.8025 5.3495 18.6215 5.21418 18.4744C5.07886 18.3273 4.90617 18.2197 4.7145 18.163C4.52284 18.1063 4.31939 18.1027 4.12585 18.1526C3.9323 18.2024 3.7559 18.3039 3.61546 18.4461C3.47503 18.5883 3.3758 18.7659 3.32838 18.9601C3.28095 19.1542 3.28709 19.3576 3.34615 19.5486C3.40521 19.7395 3.51497 19.9108 3.66374 20.0443C3.8125 20.1778 3.9947 20.2684 4.1909 20.3065V20.3283C3.93921 20.3774 3.71243 20.5124 3.54938 20.7104C3.38634 20.9083 3.29718 21.1567 3.29718 21.4132C3.29718 21.6696 3.38634 21.918 3.54938 22.1159C3.71243 22.3139 3.93921 22.4489 4.1909 22.498V22.5197C3.9945 22.557 3.81193 22.647 3.66273 22.7801C3.51353 22.9131 3.40331 23.0842 3.34385 23.2751C3.28439 23.466 3.27794 23.6694 3.32517 23.8637C3.37241 24.0579 3.47156 24.2357 3.61202 24.3779C3.75249 24.5202 3.92898 24.6216 4.12262 24.6713C4.31626 24.721 4.51977 24.7171 4.71138 24.6601C4.90299 24.603 5.07549 24.495 5.21043 24.3475C5.34538 24.2 5.43768 24.0186 5.47749 23.8227H5.50474C5.60831 24.3241 6.05529 24.7052 6.58417 24.7052C6.83857 24.7063 7.08544 24.6189 7.28239 24.4579C7.47935 24.2968 7.61407 24.0723 7.66345 23.8227H7.6907C7.79429 24.3241 8.24125 24.7052 8.77013 24.7052C9.04423 24.7045 9.30826 24.6018 9.51081 24.4172C9.71336 24.2325 9.83986 23.979 9.86575 23.7061C9.89159 23.4332 9.81492 23.1605 9.65069 22.9411C9.48645 22.7216 9.24637 22.5712 8.97726 22.5191V22.4974C9.22899 22.4483 9.45577 22.3133 9.61881 22.1153C9.78185 21.9174 9.87099 21.669 9.87099 21.4125C9.87099 21.1561 9.78185 20.9077 9.61881 20.7097C9.45577 20.5118 9.22899 20.3768 8.97726 20.3277V20.3059C9.2308 20.2612 9.46044 20.1285 9.62583 19.9312C9.79123 19.7339 9.88172 19.4846 9.88144 19.2272ZM8.36045 22.9286C8.36053 22.9622 8.35392 22.9956 8.34108 23.0267C8.32824 23.0578 8.30937 23.0861 8.28555 23.1099C8.26173 23.1337 8.23349 23.1526 8.20236 23.1654C8.17123 23.1783 8.13791 23.1849 8.10422 23.1848H5.07881C5.04515 23.1849 5.0118 23.1783 4.98069 23.1654C4.94957 23.1526 4.9213 23.1337 4.8975 23.1099C4.87369 23.0861 4.85482 23.0578 4.84196 23.0267C4.82911 22.9956 4.82252 22.9622 4.82258 22.9286V19.9032C4.82252 19.8695 4.82911 19.8361 4.84196 19.805C4.85482 19.7739 4.87369 19.7456 4.8975 19.7218C4.9213 19.698 4.94957 19.6792 4.98069 19.6663C5.0118 19.6534 5.04515 19.6469 5.07881 19.6469H8.10422C8.13791 19.6469 8.17123 19.6534 8.20236 19.6663C8.23349 19.6792 8.26173 19.698 8.28555 19.7218C8.30937 19.7456 8.32824 19.7739 8.34108 19.805C8.35392 19.8361 8.36053 19.8695 8.36045 19.9032V22.9286Z" fill="white" style="fill:white;fill-opacity:1;"/>
</g>
<g filter="url(#filter1_i_1691_30237)">
<rect width="13.1765" height="13.1765" rx="4" fill="url(#paint0_linear_1691_30237)" style=""/>
<path d="M4.37525 5.18817C5.59834 3.99066 7.58136 3.99066 8.80445 5.18817L8.95165 5.33229C9.0128 5.39217 9.0128 5.48924 8.95165 5.54912L8.4481 6.04213C8.41752 6.07207 8.36795 6.07207 8.33737 6.04213L8.13481 5.8438C7.28155 5.00839 5.89815 5.00839 5.04489 5.8438L4.82796 6.05619C4.79738 6.08613 4.7478 6.08613 4.71723 6.05619L4.21368 5.56318C4.15253 5.50331 4.15253 5.40623 4.21368 5.34636L4.37525 5.18817ZM9.84582 6.20777L10.294 6.64655C10.3551 6.70643 10.3551 6.8035 10.294 6.86338L8.27322 8.84191C8.21206 8.90178 8.11291 8.90178 8.05176 8.84191C8.05176 8.84191 8.05175 8.84191 8.05175 8.84191L6.61754 7.43769C6.60225 7.42272 6.57746 7.42272 6.56218 7.43769C6.56217 7.43769 6.56217 7.43769 6.56217 7.43769L5.12799 8.84191C5.06684 8.90178 4.96769 8.90178 4.90653 8.84191C4.90653 8.84191 4.90653 8.84191 4.90653 8.84191L2.88571 6.86335C2.82456 6.80348 2.82456 6.7064 2.88571 6.64653L3.33387 6.20774C3.39502 6.14787 3.49417 6.14787 3.55533 6.20774L4.98956 7.61198C5.00485 7.62695 5.02964 7.62695 5.04493 7.61198C5.04493 7.61198 5.04493 7.61198 5.04493 7.61198L6.47909 6.20774C6.54024 6.14787 6.63939 6.14787 6.70055 6.20774C6.70055 6.20774 6.70055 6.20774 6.70055 6.20774L8.13479 7.61198C8.15008 7.62695 8.17486 7.62695 8.19015 7.61198L9.62436 6.20777C9.68552 6.14789 9.78467 6.14789 9.84582 6.20777Z" fill="white" style="fill:white;fill-opacity:1;"/>
</g>
<g clip-path="url(#clip1_1691_30237)">
<rect x="14.8203" width="13.18" height="13.18" rx="4" fill="url(#paint1_linear_1691_30237)" style=""/>
<path d="M17.8203 4.61554H18.3588C21.1347 4.61554 23.3849 6.86581 23.3849 9.64166V10.1802H24.462C24.7594 10.1802 25.0005 9.93908 25.0005 9.64166C25.0005 5.97357 22.0269 3 18.3588 3C18.0614 3 17.8203 3.2411 17.8203 3.53851V4.61554Z" fill="url(#paint2_radial_1691_30237)" style=""/>
<path d="M23.5645 9.6416H25.0005C25.0005 9.93901 24.7594 10.1801 24.462 10.1801H23.5645V9.6416Z" fill="url(#paint3_linear_1691_30237)" style=""/>
<path d="M18.3588 3V4.43604H17.8203L17.8203 3.53851C17.8203 3.2411 18.0614 3 18.3588 3Z" fill="url(#paint4_linear_1691_30237)" style=""/>
<path d="M17.8203 4.43604H18.3588C21.2338 4.43604 23.5645 6.76667 23.5645 9.64166V10.1802H21.9489V9.64166C21.9489 7.65891 20.3416 6.05157 18.3588 6.05157H17.8203V4.43604Z" fill="url(#paint5_radial_1691_30237)" style=""/>
<path d="M22.1279 9.6416H23.564V10.1801H22.1279V9.6416Z" fill="url(#paint6_linear_1691_30237)" style=""/>
<path d="M17.8203 5.87207L17.8203 4.43604L18.3588 4.43604V5.87207H17.8203Z" fill="url(#paint7_linear_1691_30237)" style=""/>
<path d="M17.8203 6.76959C17.8203 7.06701 18.0614 7.30811 18.3588 7.30811C19.6476 7.30811 20.6924 8.35287 20.6924 9.64166C20.6924 9.93908 20.9335 10.1802 21.2309 10.1802H22.1284V9.64166C22.1284 7.55977 20.4407 5.87207 18.3588 5.87207H17.8203V6.76959Z" fill="url(#paint8_radial_1691_30237)" style=""/>
<path d="M20.6924 9.6416H22.1284V10.1801H21.2309C20.9335 10.1801 20.6924 9.93901 20.6924 9.6416Z" fill="url(#paint9_radial_1691_30237)" style=""/>
<path d="M18.3588 7.30811C18.0614 7.30811 17.8203 7.06701 17.8203 6.76959L17.8203 5.87207L18.3588 5.87207V7.30811Z" fill="url(#paint10_radial_1691_30237)" style=""/>
</g>
</g>
<defs>
<filter id="filter0_i_1691_30237" x="0" y="14.8237" width="13.1768" height="17.1763" filterUnits="userSpaceOnUse" color-interpolation-filters="sRGB">
<feFlood flood-opacity="0" result="BackgroundImageFix"/>
<feBlend mode="normal" in="SourceGraphic" in2="BackgroundImageFix" result="shape"/>
<feColorMatrix in="SourceAlpha" type="matrix" values="0 0 0 0 0 0 0 0 0 0 0 0 0 0 0 0 0 0 127 0" result="hardAlpha"/>
<feOffset dy="4"/>
<feGaussianBlur stdDeviation="4"/>
<feComposite in2="hardAlpha" operator="arithmetic" k2="-1" k3="1"/>
<feColorMatrix type="matrix" values="0 0 0 0 1 0 0 0 0 1 0 0 0 0 1 0 0 0 0.04 0"/>
<feBlend mode="normal" in2="shape" result="effect1_innerShadow_1691_30237"/>
</filter>
<filter id="filter1_i_1691_30237" x="0" y="0" width="13.1768" height="17.1763" filterUnits="userSpaceOnUse" color-interpolation-filters="sRGB">
<feFlood flood-opacity="0" result="BackgroundImageFix"/>
<feBlend mode="normal" in="SourceGraphic" in2="BackgroundImageFix" result="shape"/>
<feColorMatrix in="SourceAlpha" type="matrix" values="0 0 0 0 0 0 0 0 0 0 0 0 0 0 0 0 0 0 127 0" result="hardAlpha"/>
<feOffset dy="4"/>
<feGaussianBlur stdDeviation="4"/>
<feComposite in2="hardAlpha" operator="arithmetic" k2="-1" k3="1"/>
<feColorMatrix type="matrix" values="0 0 0 0 1 0 0 0 0 1 0 0 0 0 1 0 0 0 0.04 0"/>
<feBlend mode="normal" in2="shape" result="effect1_innerShadow_1691_30237"/>
</filter>
<linearGradient id="paint0_linear_1691_30237" x1="6.58824" y1="0" x2="6.58824" y2="13.1765" gradientUnits="userSpaceOnUse">
<stop stop-color="#5C70F6" style="stop-color:#5C70F6;stop-color:color(display-p3 0.3608 0.4392 0.9647);stop-opacity:1;"/>
<stop offset="1" stop-color="#3E55F3" style="stop-color:#3E55F3;stop-color:color(display-p3 0.2431 0.3333 0.9529);stop-opacity:1;"/>
</linearGradient>
<linearGradient id="paint1_linear_1691_30237" x1="21.4103" y1="0" x2="21.4103" y2="13.18" gradientUnits="userSpaceOnUse">
<stop stop-color="#174299" style="stop-color:#174299;stop-color:color(display-p3 0.0902 0.2588 0.6000);stop-opacity:1;"/>
<stop offset="1" stop-color="#001E59" style="stop-color:#001E59;stop-color:color(display-p3 0.0000 0.1176 0.3490);stop-opacity:1;"/>
</linearGradient>
<radialGradient id="paint2_radial_1691_30237" cx="0" cy="0" r="1" gradientUnits="userSpaceOnUse" gradientTransform="translate(18.3588 9.64166) rotate(-90) scale(6.64166)">
<stop offset="0.770277" stop-color="#FF4000" style="stop-color:#FF4000;stop-color:color(display-p3 1.0000 0.2510 0.0000);stop-opacity:1;"/>
<stop offset="1" stop-color="#8754C9" style="stop-color:#8754C9;stop-color:color(display-p3 0.5294 0.3294 0.7882);stop-opacity:1;"/>
</radialGradient>
<linearGradient id="paint3_linear_1691_30237" x1="23.4747" y1="9.91086" x2="25.0005" y2="9.91086" gradientUnits="userSpaceOnUse">
<stop stop-color="#FF4000" style="stop-color:#FF4000;stop-color:color(display-p3 1.0000 0.2510 0.0000);stop-opacity:1;"/>
<stop offset="1" stop-color="#8754C9" style="stop-color:#8754C9;stop-color:color(display-p3 0.5294 0.3294 0.7882);stop-opacity:1;"/>
</linearGradient>
<linearGradient id="paint4_linear_1691_30237" x1="18.0896" y1="3" x2="18.0896" y2="4.52579" gradientUnits="userSpaceOnUse">
<stop stop-color="#8754C9" style="stop-color:#8754C9;stop-color:color(display-p3 0.5294 0.3294 0.7882);stop-opacity:1;"/>
<stop offset="1" stop-color="#FF4000" style="stop-color:#FF4000;stop-color:color(display-p3 1.0000 0.2510 0.0000);stop-opacity:1;"/>
</linearGradient>
<radialGradient id="paint5_radial_1691_30237" cx="0" cy="0" r="1" gradientUnits="userSpaceOnUse" gradientTransform="translate(18.3588 9.64166) rotate(-90) scale(5.20563)">
<stop offset="0.723929" stop-color="#FFF700" style="stop-color:#FFF700;stop-color:color(display-p3 1.0000 0.9667 0.0000);stop-opacity:1;"/>
<stop offset="1" stop-color="#FF9901" style="stop-color:#FF9901;stop-color:color(display-p3 1.0000 0.6000 0.0039);stop-opacity:1;"/>
</radialGradient>
<linearGradient id="paint6_linear_1691_30237" x1="22.1279" y1="9.91086" x2="23.564" y2="9.91086" gradientUnits="userSpaceOnUse">
<stop stop-color="#FFF700" style="stop-color:#FFF700;stop-color:color(display-p3 1.0000 0.9667 0.0000);stop-opacity:1;"/>
<stop offset="1" stop-color="#FF9901" style="stop-color:#FF9901;stop-color:color(display-p3 1.0000 0.6000 0.0039);stop-opacity:1;"/>
</linearGradient>
<linearGradient id="paint7_linear_1691_30237" x1="18.0896" y1="5.87207" x2="18.0896" y2="4.43604" gradientUnits="userSpaceOnUse">
<stop stop-color="#FFF700" style="stop-color:#FFF700;stop-color:color(display-p3 1.0000 0.9667 0.0000);stop-opacity:1;"/>
<stop offset="1" stop-color="#FF9901" style="stop-color:#FF9901;stop-color:color(display-p3 1.0000 0.6000 0.0039);stop-opacity:1;"/>
</linearGradient>
<radialGradient id="paint8_radial_1691_30237" cx="0" cy="0" r="1" gradientUnits="userSpaceOnUse" gradientTransform="translate(18.3588 9.64166) rotate(-90) scale(3.76959)">
<stop offset="0.59513" stop-color="#00AAFF" style="stop-color:#00AAFF;stop-color:color(display-p3 0.0000 0.6667 1.0000);stop-opacity:1;"/>
<stop offset="1" stop-color="#01DA40" style="stop-color:#01DA40;stop-color:color(display-p3 0.0039 0.8549 0.2510);stop-opacity:1;"/>
</radialGradient>
<radialGradient id="paint9_radial_1691_30237" cx="0" cy="0" r="1" gradientUnits="userSpaceOnUse" gradientTransform="translate(20.6026 9.91086) scale(1.52579 4.06877)">
<stop stop-color="#00AAFF" style="stop-color:#00AAFF;stop-color:color(display-p3 0.0000 0.6667 1.0000);stop-opacity:1;"/>
<stop offset="1" stop-color="#01DA40" style="stop-color:#01DA40;stop-color:color(display-p3 0.0039 0.8549 0.2510);stop-opacity:1;"/>
</radialGradient>
<radialGradient id="paint10_radial_1691_30237" cx="0" cy="0" r="1" gradientUnits="userSpaceOnUse" gradientTransform="translate(18.0896 7.39786) rotate(-90) scale(1.52579 28.9334)">
<stop stop-color="#00AAFF" style="stop-color:#00AAFF;stop-color:color(display-p3 0.0000 0.6667 1.0000);stop-opacity:1;"/>
<stop offset="1" stop-color="#01DA40" style="stop-color:#01DA40;stop-color:color(display-p3 0.0039 0.8549 0.2510);stop-opacity:1;"/>
</radialGradient>
<clipPath id="clip0_1691_30237">
<rect width="28" height="28" fill="white" style="fill:white;fill-opacity:1;"/>
</clipPath>
<clipPath id="clip1_1691_30237">
<rect x="14.8203" width="13.18" height="13.18" rx="4" fill="white" style="fill:white;fill-opacity:1;"/>
</clipPath>
</defs>
</svg>
