<svg width="24" height="24" viewBox="0 0 24 24" fill="none" xmlns="http://www.w3.org/2000/svg">
<g id="settings 3, gear, preferences">
<g id="Icon">
<path d="M7.98941 5.39755L7.30515 5.23965C6.72652 5.10612 6.11991 5.28009 5.7 5.7C5.28009 6.11991 5.10612 6.72651 5.23965 7.30515L5.39755 7.9894C5.57956 8.7781 5.25434 9.59711 4.58086 10.0461L3.74885 10.6008C3.28101 10.9127 3 11.4377 3 12C3 12.5623 3.28101 13.0873 3.74885 13.3992L4.58086 13.9539C5.25434 14.4029 5.57956 15.2219 5.39756 16.0106L5.23965 16.6949C5.10612 17.2735 5.28009 17.8801 5.7 18.3C6.11991 18.7199 6.72651 18.8939 7.30515 18.7604L7.9894 18.6024C8.7781 18.4204 9.59711 18.7457 10.0461 19.4191L10.6008 20.2512C10.9127 20.719 11.4377 21 12 21C12.5623 21 13.0873 20.719 13.3992 20.2512L13.9539 19.4191C14.4029 18.7457 15.2219 18.4204 16.0106 18.6024L16.6949 18.7604C17.2735 18.8939 17.8801 18.7199 18.3 18.3C18.7199 17.8801 18.8939 17.2735 18.7604 16.6949L18.6024 16.0106C18.4204 15.2219 18.7457 14.4029 19.4191 13.9539L20.2512 13.3992C20.719 13.0873 21 12.5623 21 12C21 11.4377 20.719 10.9127 20.2512 10.6008L19.4191 10.0461C18.7457 9.59711 18.4204 8.7781 18.6024 7.98941L18.7604 7.30515C18.8939 6.72652 18.7199 6.11991 18.3 5.7C17.8801 5.28009 17.2735 5.10612 16.6949 5.23965L16.0106 5.39755C15.2219 5.57956 14.4029 5.25434 13.9539 4.58086L13.3992 3.74884C13.0873 3.28101 12.5623 3 12 3C11.4377 3 10.9127 3.28101 10.6008 3.74885L10.0461 4.58086C9.59711 5.25434 8.7781 5.57956 7.98941 5.39755Z" stroke="#333333" style="stroke:#333333;stroke:color(display-p3 0.2000 0.2000 0.2000);stroke-opacity:1;" stroke-width="2" stroke-linejoin="round"/>
<path d="M15 12C15 13.6569 13.6569 15 12 15C10.3431 15 9 13.6569 9 12C9 10.3431 10.3431 9 12 9C13.6569 9 15 10.3431 15 12Z" stroke="#333333" style="stroke:#333333;stroke:color(display-p3 0.2000 0.2000 0.2000);stroke-opacity:1;" stroke-width="2" stroke-linejoin="round"/>
</g>
</g>
</svg>
