<svg width="12px" height="12px" viewBox="0 0 12 12" version="1.1" xmlns="http://www.w3.org/2000/svg" xmlns:xlink="http://www.w3.org/1999/xlink"><path d="M7.86396103,5.74264069 L11.0459415,8.9246212 C11.631728,9.51040764 11.631728,10.4601551 11.0459415,11.0459415 C10.4601551,11.631728 9.51040764,11.631728 8.9246212,11.0459415 L5.74264069,7.86396103 L2.56066017,11.0459415 C1.97487373,11.631728 1.02512627,11.631728 0.439339828,11.0459415 C-0.146446609,10.4601551 -0.146446609,9.51040764 0.439339828,8.9246212 L3.62132034,5.74264069 L0.439339828,2.56066017 C-0.146446609,1.97487373 -0.146446609,1.02512627 0.439339828,0.439339828 C1.02512627,-0.146446609 1.97487373,-0.146446609 2.56066017,0.439339828 L5.74264069,3.62132034 L8.9246212,0.439339828 C9.51040764,-0.146446609 10.4601551,-0.146446609 11.0459415,0.439339828 C11.631728,1.02512627 11.631728,1.97487373 11.0459415,2.56066017 L7.86396103,5.74264069 Z" fill="#CCCED3"></path></svg>
