<svg width="22px" height="22px" viewBox="0 0 22 22" version="1.1" xmlns="http://www.w3.org/2000/svg" xmlns:xlink="http://www.w3.org/1999/xlink">
    <g id="Page-1" stroke="none" stroke-width="1" fill="none" fill-rule="evenodd">
        <g id="Desktop" transform="translate(-414.000000, -297.000000)" fill="#FFFFFF">
            <g id="Button-Large" transform="translate(402.000000, 288.000000)">
                <path d="M18.1533245,9 L27.8466755,9 C29.9863205,9 30.7622075,9.22278147 31.5444297,9.64111849 C32.3266519,10.0594555 32.9405445,10.6733481 33.3588815,11.4555703 C33.7772185,12.2377925 34,13.0136795 34,15.1533245 L34,24.8466755 C34,26.9863205 33.7772185,27.7622075 33.3588815,28.5444297 C32.9405445,29.3266519 32.3266519,29.9405445 31.5444297,30.3588815 C30.7622075,30.7772185 29.9863205,31 27.8466755,31 L18.1533245,31 C16.0136795,31 15.2377925,30.7772185 14.4555703,30.3588815 C13.6733481,29.9405445 13.0594555,29.3266519 12.6411185,28.5444297 C12.2227815,27.7622075 12,26.9863205 12,24.8466755 L12,15.1533245 C12,13.0136795 12.2227815,12.2377925 12.6411185,11.4555703 C13.0594555,10.6733481 13.6733481,10.0594555 14.4555703,9.64111849 C15.2377925,9.22278147 16.0136795,9 18.1533245,9 Z M14.8955587,16.8571429 C14.7083398,16.8571429 14.6404497,16.8766362 14.5720053,16.9132407 C14.5035608,16.9498452 14.4498452,17.0035608 14.4132407,17.0720053 C14.3766362,17.1404497 14.3571429,17.2083398 14.3571429,17.3955587 L14.3571429,26.4207678 C14.3571429,26.6079867 14.3766362,26.6758768 14.4132407,26.7443213 C14.4498452,26.8127657 14.5035608,26.8664813 14.5720053,26.9030858 C14.6404497,26.9396903 14.7083398,26.9591837 14.8955587,26.9591837 L15.5079507,26.9591837 C15.6951697,26.9591837 15.7630598,26.9396903 15.8315042,26.9030858 C15.8999487,26.8664813 15.9536643,26.8127657 15.9902688,26.7443213 C16.0268733,26.6758768 16.0463666,26.6079867 16.0463666,26.4207678 L16.0463666,17.3955587 C16.0463666,17.2083398 16.0268733,17.1404497 15.9902688,17.0720053 C15.9536643,17.0035608 15.8999487,16.9498452 15.8315042,16.9132407 C15.7630598,16.8766362 15.6951697,16.8571429 15.5079507,16.8571429 L14.8955587,16.8571429 Z M19.3076947,12.9285714 C18.9833637,12.9285714 18.8617396,13.07 18.8617396,13.3932653 L18.8617396,26.6067347 C18.8617396,26.93 18.9833637,27.0714286 19.3076947,27.0714286 L25.3686296,27.0714286 C28.5308565,27.0714286 30.0714286,25.2732653 30.0714286,22.7881633 C30.0714286,21.0102041 29.463308,19.757551 28.1051721,18.9897959 C27.8821946,18.8685714 27.8213825,18.767551 27.8213825,18.6059184 C27.8213825,18.525102 27.8416532,18.4442857 27.8619239,18.3230612 C27.9227359,18.02 28.0038187,17.535102 28.0038187,17.2118367 C28.0038187,14.6661224 26.4835173,12.9285714 23.6253506,12.9285714 L19.3076947,12.9285714 Z M22.5915457,18.4846939 C22.2672147,18.4846939 22.1455906,18.3432653 22.1455906,18.02 L22.1455906,17.0502041 C22.1455906,16.7269388 22.2672147,16.5855102 22.5915457,16.5855102 L23.6253506,16.5855102 C24.1523885,16.5855102 24.5578022,16.9289796 24.5578022,17.535102 C24.5578022,18.1614286 24.1523885,18.4846939 23.6253506,18.4846939 L22.5915457,18.4846939 Z M22.5915457,23.4144898 C22.2672147,23.4144898 22.1455906,23.2730612 22.1455906,22.9497959 L22.1455906,21.98 C22.1455906,21.6567347 22.2672147,21.5153061 22.5915457,21.5153061 L25.3078175,21.5153061 C26.0983743,21.5153061 26.5443293,21.8183673 26.5443293,22.464898 C26.5443293,23.1316327 26.0983743,23.4144898 25.3078175,23.4144898 L22.5915457,23.4144898 Z" id="logo-lg"></path>
            </g>
        </g>
    </g>
</svg>
