<svg width="18px" height="18px" viewBox="0 0 18 18" version="1.1" xmlns="http://www.w3.org/2000/svg" xmlns:xlink="http://www.w3.org/1999/xlink">
    <g id="Page-1" stroke="none" stroke-width="1" fill="none" fill-rule="evenodd">
        <g id="Desktop" transform="translate(-408.000000, -241.000000)" fill="#FFFFFF">
            <g id="Button-Medium" transform="translate(402.000000, 236.000000)">
                <path d="M10.9226596,5 L19.0773404,5 C20.7890564,5 21.409766,5.17822517 22.0355438,5.51289479 C22.6613215,5.84756441 23.1524356,6.33867847 23.4871052,6.96445625 C23.8217748,7.59023403 24,8.2109436 24,9.92265958 L24,18.0773404 C24,19.7890564 23.8217748,20.409766 23.4871052,21.0355438 C23.1524356,21.6613215 22.6613215,22.1524356 22.0355438,22.4871052 C21.409766,22.8217748 20.7890564,23 19.0773404,23 L10.9226596,23 C9.2109436,23 8.59023403,22.8217748 7.96445625,22.4871052 C7.33867847,22.1524356 6.84756441,21.6613215 6.51289479,21.0355438 C6.17822517,20.409766 6,19.7890564 6,18.0773404 L6,9.92265958 C6,8.2109436 6.17822517,7.59023403 6.51289479,6.96445625 C6.84756441,6.33867847 7.33867847,5.84756441 7.96445625,5.51289479 C8.59023403,5.17822517 9.2109436,5 10.9226596,5 Z M8.35930414,11.4285714 C8.20952899,11.4285714 8.15521691,11.4441661 8.10046135,11.4734497 C8.04570579,11.5027333 8.00273331,11.5457058 7.97344972,11.6004614 C7.94416613,11.6552169 7.92857143,11.709529 7.92857143,11.8593041 L7.92857143,19.2631448 C7.92857143,19.41292 7.94416613,19.4672321 7.97344972,19.5219876 C8.00273331,19.5767432 8.04570579,19.6197157 8.10046135,19.6489993 C8.15521691,19.6782828 8.20952899,19.6938776 8.35930414,19.6938776 L8.8799309,19.6938776 C9.02970604,19.6938776 9.08401813,19.6782828 9.13877369,19.6489993 C9.19352924,19.6197157 9.23650172,19.5767432 9.26578531,19.5219876 C9.29506891,19.4672321 9.31066361,19.41292 9.31066361,19.2631448 L9.31066361,11.8593041 C9.31066361,11.709529 9.29506891,11.6552169 9.26578531,11.6004614 C9.23650172,11.5457058 9.19352924,11.5027333 9.13877369,11.4734497 C9.08401813,11.4441661 9.02970604,11.4285714 8.8799309,11.4285714 L8.35930414,11.4285714 Z M11.9790229,8.21428571 C11.7136612,8.21428571 11.6141506,8.33 11.6141506,8.5944898 L11.6141506,19.4055102 C11.6141506,19.67 11.7136612,19.7857143 11.9790229,19.7857143 L16.9379697,19.7857143 C19.5252462,19.7857143 20.7857143,18.3144898 20.7857143,16.2812245 C20.7857143,14.8265306 20.2881611,13.8016327 19.176959,13.1734694 C18.9945228,13.0742857 18.9447675,12.9916327 18.9447675,12.8593878 C18.9447675,12.7932653 18.9613526,12.7271429 18.9779377,12.6279592 C19.027693,12.38 19.0940335,11.9832653 19.0940335,11.7187755 C19.0940335,9.63591837 17.8501505,8.21428571 15.5116505,8.21428571 L11.9790229,8.21428571 Z M14.6658101,12.7602041 C14.4004484,12.7602041 14.3009378,12.6444898 14.3009378,12.38 L14.3009378,11.5865306 C14.3009378,11.3220408 14.4004484,11.2063265 14.6658101,11.2063265 L15.5116505,11.2063265 C15.9428633,11.2063265 16.2745654,11.4873469 16.2745654,11.9832653 C16.2745654,12.4957143 15.9428633,12.7602041 15.5116505,12.7602041 L14.6658101,12.7602041 Z M14.6658101,16.7936735 C14.4004484,16.7936735 14.3009378,16.6779592 14.3009378,16.4134694 L14.3009378,15.62 C14.3009378,15.3555102 14.4004484,15.2397959 14.6658101,15.2397959 L16.8882143,15.2397959 C17.5350335,15.2397959 17.8999058,15.4877551 17.8999058,16.0167347 C17.8999058,16.5622449 17.5350335,16.7936735 16.8882143,16.7936735 L14.6658101,16.7936735 Z" id="logo-md"></path>
            </g>
        </g>
    </g>
</svg>
