<svg width="12px" height="12px" viewBox="0 0 12 12" version="1.1" xmlns="http://www.w3.org/2000/svg" xmlns:xlink="http://www.w3.org/1999/xlink">
    <g id="Page-1" stroke="none" stroke-width="1" fill="none" fill-rule="evenodd">
        <g id="Desktop" transform="translate(-408.000000, -197.000000)" fill="#FFFFFF">
            <g id="Button-Small" transform="translate(402.000000, 193.000000)">
                <path d="M9.07666224,4 L14.9233378,4 C15.9931602,4 16.3811037,4.11139073 16.7722148,4.32055924 C17.163326,4.52972776 17.4702722,4.83667404 17.6794408,5.22778516 C17.8886093,5.61889627 18,6.00683975 18,7.07666224 L18,12.9233378 C18,13.9931602 17.8886093,14.3811037 17.6794408,14.7722148 C17.4702722,15.163326 17.163326,15.4702722 16.7722148,15.6794408 C16.3811037,15.8886093 15.9931602,16 14.9233378,16 L9.07666224,16 C8.00683975,16 7.61889627,15.8886093 7.22778516,15.6794408 C6.83667404,15.4702722 6.52972776,15.163326 6.32055924,14.7722148 C6.11139073,14.3811037 6,13.9931602 6,12.9233378 L6,7.07666224 C6,6.00683975 6.11139073,5.61889627 6.32055924,5.22778516 C6.52972776,4.83667404 6.83667404,4.52972776 7.22778516,4.32055924 C7.61889627,4.11139073 8.00683975,4 9.07666224,4 Z M7.55492223,8.28571429 C7.46131276,8.28571429 7.42736771,8.29546097 7.39314549,8.31376322 C7.35892326,8.33206546 7.33206546,8.35892326 7.31376322,8.39314549 C7.29546097,8.42736771 7.28571429,8.46131276 7.28571429,8.55492223 L7.28571429,13.5267104 C7.28571429,13.6203199 7.29546097,13.6542649 7.31376322,13.6884872 C7.33206546,13.7227094 7.35892326,13.7495672 7.39314549,13.7678694 C7.42736771,13.7861717 7.46131276,13.7959184 7.55492223,13.7959184 L7.93790113,13.7959184 C8.03151059,13.7959184 8.06545565,13.7861717 8.09967787,13.7678694 C8.13390009,13.7495672 8.16075789,13.7227094 8.17906014,13.6884872 C8.19736238,13.6542649 8.20710907,13.6203199 8.20710907,13.5267104 L8.20710907,8.55492223 C8.20710907,8.46131276 8.19736238,8.42736771 8.17906014,8.39314549 C8.16075789,8.35892326 8.13390009,8.33206546 8.09967787,8.31376322 C8.06545565,8.29546097 8.03151059,8.28571429 7.93790113,8.28571429 L7.55492223,8.28571429 Z M9.98601527,6.14285714 C9.80910748,6.14285714 9.74276705,6.22 9.74276705,6.39632653 L9.74276705,13.6036735 C9.74276705,13.78 9.80910748,13.8571429 9.98601527,13.8571429 L13.2919798,13.8571429 C15.0168308,13.8571429 15.8571429,12.8763265 15.8571429,11.5208163 C15.8571429,10.5510204 15.5254407,9.8677551 14.7846393,9.44897959 C14.6630152,9.38285714 14.629845,9.3277551 14.629845,9.23959184 C14.629845,9.1955102 14.6409017,9.15142857 14.6519585,9.08530612 C14.6851287,8.92 14.7293556,8.6555102 14.7293556,8.47918367 C14.7293556,7.09061224 13.9001003,6.14285714 12.3411004,6.14285714 L9.98601527,6.14285714 Z M11.7772067,9.17346939 C11.6002989,9.17346939 11.5339585,9.09632653 11.5339585,8.92 L11.5339585,8.39102041 C11.5339585,8.21469388 11.6002989,8.13755102 11.7772067,8.13755102 L12.3411004,8.13755102 C12.6285755,8.13755102 12.8497103,8.32489796 12.8497103,8.6555102 C12.8497103,8.99714286 12.6285755,9.17346939 12.3411004,9.17346939 L11.7772067,9.17346939 Z M11.7772067,11.862449 C11.6002989,11.862449 11.5339585,11.7853061 11.5339585,11.6089796 L11.5339585,11.08 C11.5339585,10.9036735 11.6002989,10.8265306 11.7772067,10.8265306 L13.2588096,10.8265306 C13.6900223,10.8265306 13.9332705,10.9918367 13.9332705,11.3444898 C13.9332705,11.7081633 13.6900223,11.862449 13.2588096,11.862449 L11.7772067,11.862449 Z" id="logo-sm"></path>
            </g>
        </g>
    </g>
</svg>
